<?xml version="1.0" encoding="utf-8"?>
<!-- Generator: Adobe Illustrator 26.0.1, SVG Export Plug-In . SVG Version: 6.00 Build 0)  -->
<svg version="1.1" id="Layer_1" xmlns="http://www.w3.org/2000/svg" xmlns:xlink="http://www.w3.org/1999/xlink" x="0px" y="0px"
	 width="300px" height="300px" viewBox="0 0 300 300" style="enable-background:new 0 0 300 300;" xml:space="preserve">
<style type="text/css">
	.st0{opacity:0.3;enable-background:new    ;}
	.st1{fill:#F2F2F2;}
	.st2{fill:#40396E;}
	.st3{fill:#96C362;}
	.st4{opacity:0.41;fill:#5B5682;enable-background:new    ;}
</style>
<path class="st0" d="M258.8,68.1c0,0-9.3-10-9.8-9.5c-21,20.4-195.9,187.1-183,197.8l0.3,1c28.6,26.6,69.3,39.5,108.1,34.4
	c30.7-3.7,59.9-18.5,81.1-41c22.8-23.8,36.3-56.1,37.1-89.1C293.9,127.7,281.7,93.3,258.8,68.1z"/>
<path class="st1" d="M283.2,120.9C262.1,28,151.6-14.3,73.9,40.7C0.8,91-3.1,200.8,66.1,256.3C167,336.6,311.1,246.8,283.2,120.9z"
	/>
<path class="st2" d="M268.1,124C219.5-43-20.5,38.3,42.1,200.3C102.8,331.1,299.2,264.6,268.1,124z"/>
<path class="st3" d="M252.7,106.8c-8.1-18.4-21.3-34.4-37.8-45.9c-18.4-13-40.9-20.1-63.4-20c-14.1,0.1-28.3,2.5-41.4,8
	C86.7,58.3,66.8,76,54.6,98c-14,25.1-17.5,55.7-9.6,83.3c5.2,18.8,15.7,36.1,29.7,49.7c12.6,12.2,28.2,21.4,45,26.4
	c16.8,5.1,34.9,6,52.2,2.8c31.6-5.7,60-26.2,75.7-54.1C264.9,176.3,266.8,138.2,252.7,106.8z"/>
<path class="st1" d="M241.2,138.5c-3-21.3-14-41.4-30.2-55.5c-16.3-14.3-37.8-22.3-59.5-22.3c-19.1,0-38.1,6.2-53.5,17.5
	C87.4,86,78.6,96.1,72.2,107.5l-0.1,0.2c-8.8,16-12.6,34.6-10.8,52.7c2,21.2,11.8,41.5,27.2,56.2c13.7,13.3,31.8,22.2,50.8,24.7
	c19.1,2.6,38.9-1,55.8-10.3c16.8-9.1,30.5-23.7,38.6-41C241.1,174.1,243.7,155.9,241.2,138.5z"/>
<path class="st4" d="M151.5,60.8c0-6.7,0-13.3,0-20c-14.1,0.1-28.3,2.5-41.4,8C86.7,58.3,66.8,76,54.6,98c5.9,3,11.6,6.5,17.6,9.4
	l-0.1,0.2c6.6,3.5,13.1,7.2,19.7,10.7c1.4-0.9,35.9,18.8,51.5,26.8c2.4-1.7,5.3-2.5,8.2-2.6C151.5,116.5,151.5,86.9,151.5,60.8z"/>
<path class="st2" d="M194.6,137.5c-0.8-2.1-3.4-3.5-5.5-2.7c-9.3,2.9-18.7,5.9-28,8.8c-2.5-2.7-5.9-4.4-9.6-4.4
	c-3,0-5.7,1.2-8.1,2.9c-15.6-8-31.2-16.2-46.8-24.1c-1.6-0.9-3.4-0.4-4.9,0.5c-1.5,1.4-2.3,3.7-1.3,5.7c0.8,1.8,2.7,2.4,4.3,3.3
	c14.8,7.7,29.6,15.3,44.4,23c-0.3,4.1,1.4,8.3,4.7,10.8c4,3.3,10.2,3.5,14.4,0.6c3.2-2,5-5.6,5.5-9.3c9.2-2.9,18.4-5.8,27.6-8.7
	C194,143,195.7,140,194.6,137.5z"/>
</svg>
