<?xml version="1.0" encoding="utf-8"?>
<!-- Generator: Adobe Illustrator 26.0.1, SVG Export Plug-In . SVG Version: 6.00 Build 0)  -->
<svg version="1.1" id="Layer_1" xmlns="http://www.w3.org/2000/svg" xmlns:xlink="http://www.w3.org/1999/xlink" x="0px" y="0px"
	 viewBox="0 0 145 28" style="enable-background:new 0 0 145 28;" xml:space="preserve">
<style type="text/css">
	.st0{opacity:0.5;fill:none;stroke:#5C5F77;stroke-width:5.000000e-02;stroke-miterlimit:10;enable-background:new    ;}
	.st1{fill:none;stroke:#5C5F77;stroke-width:5.000000e-02;stroke-miterlimit:10;}
	.st2{font-family:'CambriaMath';}
	.st3{font-size:6px;}
	.st4{opacity:0.7;fill:#40A02B;enable-background:new    ;}
	.st5{fill:#D20F39;}
	.st6{font-size:3px;}
	.st7{font-size:1.749px;}
	.st8{fill:none;stroke:#D20F39;stroke-width:0.2;stroke-miterlimit:10;}
	.st9{fill:#1E66F5;}
	.st10{fill:none;stroke:#1E66F5;stroke-width:0.2;stroke-miterlimit:10;}
	.st11{font-size:4px;}
	.st12{font-size:2.332px;}
	.st13{fill:#8839EF;}
	.st14{fill:none;stroke:#8839EF;stroke-width:0.2;stroke-miterlimit:10;}
	.st15{display:none;fill:none;stroke:#8839EF;stroke-width:0.2;stroke-miterlimit:10;}
</style>
<g id="x_x5F_grid_00000157307981907937972130000003125281318253666986_">
	<line class="st0" x1="0" y1="1" x2="145" y2="1"/>
	<line class="st0" x1="0" y1="2" x2="145" y2="2"/>
	<line class="st0" x1="0" y1="3" x2="145" y2="3"/>
	<line class="st0" x1="0" y1="4" x2="145" y2="4"/>
	<line class="st0" x1="0" y1="5" x2="145" y2="5"/>
	<line class="st0" x1="0" y1="6" x2="145" y2="6"/>
	<line class="st0" x1="0" y1="7" x2="145" y2="7"/>
	<line class="st0" x1="0" y1="8" x2="145" y2="8"/>
	<line class="st0" x1="0" y1="9" x2="145" y2="9"/>
	<line class="st0" x1="0" y1="10" x2="145" y2="10"/>
	<line class="st0" x1="0" y1="11" x2="145" y2="11"/>
	<line class="st0" x1="0" y1="12" x2="145" y2="12"/>
	<line class="st0" x1="0" y1="13" x2="145" y2="13"/>
	<line class="st0" x1="0" y1="14" x2="145" y2="14"/>
	<line class="st0" x1="0" y1="15" x2="145" y2="15"/>
	<line class="st0" x1="0" y1="16" x2="145" y2="16"/>
	<line class="st0" x1="0" y1="17" x2="145" y2="17"/>
	<line class="st0" x1="0" y1="18" x2="145" y2="18"/>
	<line class="st0" x1="0" y1="19" x2="145" y2="19"/>
	<line class="st0" x1="0" y1="20" x2="145" y2="20"/>
	<line class="st0" x1="0" y1="21" x2="145" y2="21"/>
	<line class="st0" x1="0" y1="22" x2="145" y2="22"/>
	<line class="st0" x1="0" y1="23" x2="145" y2="23"/>
	<line class="st0" x1="0" y1="24" x2="145" y2="24"/>
	<line class="st0" x1="0" y1="25" x2="145" y2="25"/>
	<line class="st0" x1="0" y1="26" x2="145" y2="26"/>
	<line class="st0" x1="0" y1="27" x2="145" y2="27"/>
</g>
<g id="y_x5F_grid_00000115495537550553526720000006112660415580557744_">
	<line class="st1" x1="1" y1="0" x2="1" y2="28"/>
	<line class="st1" x1="2" y1="0" x2="2" y2="28"/>
	<line class="st1" x1="3" y1="0" x2="3" y2="28"/>
	<line class="st1" x1="4" y1="0" x2="4" y2="28"/>
	<line class="st1" x1="5" y1="0" x2="5" y2="28"/>
	<line class="st1" x1="6" y1="0" x2="6" y2="28"/>
	<line class="st1" x1="7" y1="0" x2="7" y2="28"/>
	<line class="st1" x1="8" y1="0" x2="8" y2="28"/>
	<line class="st1" x1="9" y1="0" x2="9" y2="28"/>
	<line class="st1" x1="10" y1="0" x2="10" y2="28"/>
	<line class="st1" x1="11" y1="0" x2="11" y2="28"/>
	<line class="st1" x1="12" y1="0" x2="12" y2="28"/>
	<line class="st1" x1="13" y1="0" x2="13" y2="28"/>
	<line class="st1" x1="14" y1="0" x2="14" y2="28"/>
	<line class="st1" x1="15" y1="0" x2="15" y2="28"/>
	<line class="st1" x1="16" y1="0" x2="16" y2="28"/>
	<line class="st1" x1="17" y1="0" x2="17" y2="28"/>
	<line class="st1" x1="18" y1="0" x2="18" y2="28"/>
	<line class="st1" x1="19" y1="0" x2="19" y2="28"/>
	<line class="st1" x1="20" y1="0" x2="20" y2="28"/>
	<line class="st1" x1="21" y1="0" x2="21" y2="28"/>
	<line class="st1" x1="22" y1="0" x2="22" y2="28"/>
	<line class="st1" x1="23" y1="0" x2="23" y2="28"/>
	<line class="st1" x1="24" y1="0" x2="24" y2="28"/>
	<line class="st1" x1="25" y1="0" x2="25" y2="28"/>
	<line class="st1" x1="26" y1="0" x2="26" y2="28"/>
	<line class="st1" x1="27" y1="0" x2="27" y2="28"/>
	<line class="st1" x1="28" y1="0" x2="28" y2="28"/>
	<line class="st1" x1="29" y1="0" x2="29" y2="28"/>
	<line class="st1" x1="30" y1="0" x2="30" y2="28"/>
	<line class="st1" x1="31" y1="0" x2="31" y2="28"/>
	<line class="st1" x1="32" y1="0" x2="32" y2="28"/>
	<line class="st1" x1="33" y1="0" x2="33" y2="28"/>
	<line class="st1" x1="34" y1="0" x2="34" y2="28"/>
	<line class="st1" x1="35" y1="0" x2="35" y2="28"/>
	<line class="st1" x1="36" y1="0" x2="36" y2="28"/>
	<line class="st1" x1="37" y1="0" x2="37" y2="28"/>
	<line class="st1" x1="38" y1="0" x2="38" y2="28"/>
	<line class="st1" x1="39" y1="0" x2="39" y2="28"/>
	<line class="st1" x1="40" y1="0" x2="40" y2="28"/>
	<line class="st1" x1="41" y1="0" x2="41" y2="28"/>
	<line class="st1" x1="42" y1="0" x2="42" y2="28"/>
	<line class="st1" x1="43" y1="0" x2="43" y2="28"/>
	<line class="st1" x1="44" y1="0" x2="44" y2="28"/>
	<line class="st1" x1="45" y1="0" x2="45" y2="28"/>
	<line class="st1" x1="46" y1="0" x2="46" y2="28"/>
	<line class="st1" x1="47" y1="0" x2="47" y2="28"/>
	<line class="st1" x1="48" y1="0" x2="48" y2="28"/>
	<line class="st1" x1="49" y1="0" x2="49" y2="28"/>
	<line class="st1" x1="50" y1="0" x2="50" y2="28"/>
	<line class="st1" x1="51" y1="0" x2="51" y2="28"/>
	<line class="st1" x1="52" y1="0" x2="52" y2="28"/>
	<line class="st1" x1="53" y1="0" x2="53" y2="28"/>
	<line class="st1" x1="54" y1="0" x2="54" y2="28"/>
	<line class="st1" x1="55" y1="0" x2="55" y2="28"/>
	<line class="st1" x1="56" y1="0" x2="56" y2="28"/>
	<line class="st1" x1="57" y1="0" x2="57" y2="28"/>
	<line class="st1" x1="58" y1="0" x2="58" y2="28"/>
	<line class="st1" x1="59" y1="0" x2="59" y2="28"/>
	<line class="st1" x1="60" y1="0" x2="60" y2="28"/>
	<line class="st1" x1="61" y1="0" x2="61" y2="28"/>
	<line class="st1" x1="62" y1="0" x2="62" y2="28"/>
	<line class="st1" x1="63" y1="0" x2="63" y2="28"/>
	<line class="st1" x1="64" y1="0" x2="64" y2="28"/>
	<line class="st1" x1="65" y1="0" x2="65" y2="28"/>
	<line class="st1" x1="66" y1="0" x2="66" y2="28"/>
	<line class="st1" x1="67" y1="0" x2="67" y2="28"/>
	<line class="st1" x1="68" y1="0" x2="68" y2="28"/>
	<line class="st1" x1="69" y1="0" x2="69" y2="28"/>
	<line class="st1" x1="70" y1="0" x2="70" y2="28"/>
	<line class="st1" x1="71" y1="0" x2="71" y2="28"/>
	<line class="st1" x1="72" y1="0" x2="72" y2="28"/>
	<line class="st1" x1="73" y1="0" x2="73" y2="28"/>
	<line class="st1" x1="74" y1="0" x2="74" y2="28"/>
	<line class="st1" x1="75" y1="0" x2="75" y2="28"/>
	<line class="st1" x1="76" y1="0" x2="76" y2="28"/>
	<line class="st1" x1="77" y1="0" x2="77" y2="28"/>
	<line class="st1" x1="78" y1="0" x2="78" y2="28"/>
	<line class="st1" x1="79" y1="0" x2="79" y2="28"/>
	<line class="st1" x1="80" y1="0" x2="80" y2="28"/>
	<line class="st1" x1="81" y1="0" x2="81" y2="28"/>
	<line class="st1" x1="82" y1="0" x2="82" y2="28"/>
	<line class="st1" x1="83" y1="0" x2="83" y2="28"/>
	<line class="st1" x1="84" y1="0" x2="84" y2="28"/>
	<line class="st1" x1="85" y1="0" x2="85" y2="28"/>
	<line class="st1" x1="86" y1="0" x2="86" y2="28"/>
	<line class="st1" x1="87" y1="0" x2="87" y2="28"/>
	<line class="st1" x1="88" y1="0" x2="88" y2="28"/>
	<line class="st1" x1="89" y1="0" x2="89" y2="28"/>
	<line class="st1" x1="90" y1="0" x2="90" y2="28"/>
	<line class="st1" x1="91" y1="0" x2="91" y2="28"/>
	<line class="st1" x1="92" y1="0" x2="92" y2="28"/>
	<line class="st1" x1="93" y1="0" x2="93" y2="28"/>
	<line class="st1" x1="94" y1="0" x2="94" y2="28"/>
	<line class="st1" x1="95" y1="0" x2="95" y2="28"/>
	<line class="st1" x1="96" y1="0" x2="96" y2="28"/>
	<line class="st1" x1="97" y1="0" x2="97" y2="28"/>
	<line class="st1" x1="98" y1="0" x2="98" y2="28"/>
	<line class="st1" x1="99" y1="0" x2="99" y2="28"/>
	<line class="st1" x1="100" y1="0" x2="100" y2="28"/>
	<line class="st1" x1="101" y1="0" x2="101" y2="28"/>
	<line class="st1" x1="102" y1="0" x2="102" y2="28"/>
	<line class="st1" x1="103" y1="0" x2="103" y2="28"/>
	<line class="st1" x1="104" y1="0" x2="104" y2="28"/>
	<line class="st1" x1="105" y1="0" x2="105" y2="28"/>
	<line class="st1" x1="106" y1="0" x2="106" y2="28"/>
	<line class="st1" x1="107" y1="0" x2="107" y2="28"/>
	<line class="st1" x1="108" y1="0" x2="108" y2="28"/>
	<line class="st1" x1="109" y1="0" x2="109" y2="28"/>
	<line class="st1" x1="110" y1="0" x2="110" y2="28"/>
	<line class="st1" x1="111" y1="0" x2="111" y2="28"/>
	<line class="st1" x1="112" y1="0" x2="112" y2="28"/>
	<line class="st1" x1="113" y1="0" x2="113" y2="28"/>
	<line class="st1" x1="114" y1="0" x2="114" y2="28"/>
	<line class="st1" x1="115" y1="0" x2="115" y2="28"/>
	<line class="st1" x1="116" y1="0" x2="116" y2="28"/>
	<line class="st1" x1="117" y1="0" x2="117" y2="28"/>
	<line class="st1" x1="118" y1="0" x2="118" y2="28"/>
	<line class="st1" x1="119" y1="0" x2="119" y2="28"/>
	<line class="st1" x1="120" y1="0" x2="120" y2="28"/>
	<line class="st1" x1="121" y1="0" x2="121" y2="28"/>
	<line class="st1" x1="122" y1="0" x2="122" y2="28"/>
	<line class="st1" x1="123" y1="0" x2="123" y2="28"/>
	<line class="st1" x1="124" y1="0" x2="124" y2="28"/>
	<line class="st1" x1="125" y1="0" x2="125" y2="28"/>
	<line class="st1" x1="126" y1="0" x2="126" y2="28"/>
	<line class="st1" x1="127" y1="0" x2="127" y2="28"/>
	<line class="st1" x1="128" y1="0" x2="128" y2="28"/>
	<line class="st1" x1="129" y1="0" x2="129" y2="28"/>
	<line class="st1" x1="130" y1="0" x2="130" y2="28"/>
	<line class="st1" x1="131" y1="0" x2="131" y2="28"/>
	<line class="st1" x1="132" y1="0" x2="132" y2="28"/>
	<line class="st1" x1="133" y1="0" x2="133" y2="28"/>
	<line class="st1" x1="134" y1="0" x2="134" y2="28"/>
	<line class="st1" x1="135" y1="0" x2="135" y2="28"/>
	<line class="st1" x1="136" y1="0" x2="136" y2="28"/>
	<line class="st1" x1="137" y1="0" x2="137" y2="28"/>
	<line class="st1" x1="138" y1="0" x2="138" y2="28"/>
	<line class="st1" x1="139" y1="0" x2="139" y2="28"/>
	<line class="st1" x1="140" y1="0" x2="140" y2="28"/>
	<line class="st1" x1="141" y1="0" x2="141" y2="28"/>
	<line class="st1" x1="142" y1="0" x2="142" y2="28"/>
	<line class="st1" x1="143" y1="0" x2="143" y2="28"/>
	<line class="st1" x1="144" y1="0" x2="144" y2="28"/>
</g>
<g id="_x31_">
	<text transform="matrix(1 0 0 1 18.3389 27.1079)" class="st2 st3">1</text>
	<path class="st4" d="M5,6c10,10,20,10,30,0v15H5V6z"/>
	<circle class="st5" cx="20" cy="13.5" r="0.3"/>
	<text transform="matrix(1 0 0 1 18.8321 11.6272)" class="st5 st2 st6">t</text>
	<text transform="matrix(1 0 0 1 19.8467 12.626)" class="st5 st2 st7">min</text>
	<line class="st8" x1="7" y1="13.5" x2="33" y2="13.5"/>
</g>
<g id="_x32__00000119102172148490483340000002773903220111839873_">
	<text transform="matrix(1 0 0 1 53.3389 27.1079)" class="st2 st3">2</text>
	<path class="st4" d="M40,6c10,10,20,10,30,0v15H40V6z"/>
	<circle class="st9" cx="40" cy="6" r="0.3"/>
	<circle class="st9" cx="50" cy="16" r="0.3"/>
	<circle class="st9" cx="60" cy="16" r="0.3"/>
	<circle class="st9" cx="70" cy="6" r="0.3"/>
	<line class="st8" x1="42" y1="13.5" x2="68" y2="13.5"/>
	<line class="st10" x1="40" y1="6" x2="50" y2="16"/>
	<line class="st10" x1="60" y1="16" x2="70" y2="6"/>
	<text transform="matrix(1 0 0 1 38.6587 4.6802)" class="st9 st2 st11">P</text>
	<text transform="matrix(1 0 0 1 40.9297 6.0127)" class="st9 st2 st12">0</text>
	<text transform="matrix(1 0 0 1 46.6587 18.6802)" class="st9 st2 st11">P</text>
	<text transform="matrix(1 0 0 1 48.9297 20.0127)" class="st9 st2 st12">1</text>
	<text transform="matrix(1 0 0 1 60.6587 18.6802)" class="st9 st2 st11">P</text>
	<text transform="matrix(1 0 0 1 62.9297 20.0127)" class="st9 st2 st12">2</text>
	<text transform="matrix(1 0 0 1 69.6587 4.6802)" class="st9 st2 st11">P</text>
	<text transform="matrix(1 0 0 1 71.9297 6.0127)" class="st9 st2 st12">3</text>
	<text transform="matrix(1 0 0 1 47.063 12.2871)" class="st13 st2 st6">I</text>
	<text transform="matrix(1 0 0 1 48.0352 13.2861)" class="st13 st2 st7">1</text>
	<circle class="st13" cx="47.5" cy="13.5" r="0.3"/>
	<text transform="matrix(1 0 0 1 60.6583 12.0001)" class="st13 st2 st6">I</text>
	<text transform="matrix(1 0 0 1 61.6309 12.999)" class="st13 st2 st7">2</text>
	<circle class="st13" cx="62.5" cy="13.5" r="0.3"/>
</g>
<g id="_x33_">
	<text transform="matrix(1 0 0 1 88.3389 27.1079)" class="st2 st3">3</text>
	<path class="st4" d="M75,6c10,10,20,10,30,0v15H75V6z"/>
	<circle class="st13" cx="82.5" cy="13.5" r="0.3"/>
	<circle class="st13" cx="83.2" cy="12" r="0.3"/>
	<circle class="st13" cx="97.5" cy="13.5" r="0.3"/>
	<circle class="st13" cx="96.8" cy="12" r="0.3"/>
	<line class="st14" x1="82.5" y1="13.5" x2="83.2" y2="12"/>
	<line class="st14" x1="97.5" y1="13.5" x2="96.8" y2="12"/>
	<text transform="matrix(1 0 0 1 83.1985 11.6272)" class="st13 st2 st6">N</text>
	<text transform="matrix(1 0 0 1 85.2402 12.626)" class="st13 st2 st7">1</text>
	<text transform="matrix(1 0 0 1 96.6011 11.2501)" class="st13 st2 st6">N</text>
	<text transform="matrix(1 0 0 1 98.6426 12.249)" class="st13 st2 st7">2</text>
	<circle class="st9" cx="75" cy="6" r="0.3"/>
	<circle class="st9" cx="105" cy="6" r="0.3"/>
	<text transform="matrix(1 0 0 1 73.6587 4.6802)" class="st9 st2 st11">P</text>
	<text transform="matrix(1 0 0 1 75.9297 6.0127)" class="st9 st2 st12">0</text>
	<text transform="matrix(1 0 0 1 104.6587 4.6802)" class="st9 st2 st11">P</text>
	<text transform="matrix(1 0 0 1 106.9297 6.0127)" class="st9 st2 st12">3</text>
	<text transform="matrix(1 0 0 1 81.5635 16.1075)" class="st13 st2 st6">O</text>
	<text transform="matrix(1 0 0 1 83.5234 17.1064)" class="st13 st2 st7">1</text>
	<text transform="matrix(1 0 0 1 96.8003 16.1204)" class="st13 st2 st6">O</text>
	<text transform="matrix(1 0 0 1 98.7598 17.1196)" class="st13 st2 st7">2</text>
</g>
<g id="_x34_">
	<text transform="matrix(1 0 0 1 123.3389 27.1079)" class="st2 st3">4</text>
	<path class="st4" d="M110,6c10,10,20,10,30,0v15h-30V6z"/>
	<circle class="st13" cx="110" cy="6" r="0.3"/>
	<circle class="st13" cx="118.2" cy="12" r="0.3"/>
	<circle class="st13" cx="131.8" cy="12" r="0.3"/>
	<circle class="st13" cx="140" cy="6" r="0.3"/>
	<line class="st14" x1="110" y1="6" x2="118.2" y2="12"/>
	<line class="st14" x1="131.8" y1="12" x2="118.2" y2="12"/>
	<line class="st14" x1="131.8" y1="12" x2="140" y2="6"/>
</g>
<line class="st15" x1="140" y1="6" x2="132.5" y2="-1.5"/>
<line class="st15" x1="117.5" y1="-1.5" x2="110" y2="6"/>
<text transform="matrix(1 0 0 1 16.2737 16.0812)" class="st5 st2 st6">y’(t</text>
<text transform="matrix(1 0 0 1 20.709 17.0801)" class="st5 st2 st7">min</text>
<text transform="matrix(1 0 0 1 23.6262 16.0812)" class="st5 st2 st6">)</text>
</svg>
