<?xml version="1.0" encoding="utf-8"?>
<!-- Generator: Adobe Illustrator 26.0.1, SVG Export Plug-In . SVG Version: 6.00 Build 0)  -->
<svg version="1.1" id="Layer_1" xmlns="http://www.w3.org/2000/svg" xmlns:xlink="http://www.w3.org/1999/xlink" x="0px" y="0px"
	 viewBox="0 0 70 22" style="enable-background:new 0 0 70 22;" xml:space="preserve">
<style type="text/css">
	.st0{opacity:0.5;fill:none;stroke:#5C5F77;stroke-width:5.000000e-02;stroke-miterlimit:10;enable-background:new    ;}
	.st1{fill:none;stroke:#5C5F77;stroke-width:5.000000e-02;stroke-miterlimit:10;}
	.st2{opacity:0.7;fill:#40A02B;enable-background:new    ;}
	.st3{fill:#D20F39;}
	.st4{font-family:'CambriaMath';}
	.st5{font-size:4px;}
	.st6{font-size:2.332px;}
	.st7{opacity:0.7;fill:none;stroke:#1E66F5;stroke-width:0.4;stroke-miterlimit:10;enable-background:new    ;}
	.st8{opacity:0.7;fill:none;stroke:#E64553;stroke-width:0.4;stroke-miterlimit:10;enable-background:new    ;}
</style>
<g id="x_x5F_grid">
	<line class="st0" x1="0" y1="-8" x2="70" y2="-8"/>
	<line class="st0" x1="0" y1="-7" x2="70" y2="-7"/>
	<line class="st0" x1="0" y1="-6" x2="70" y2="-6"/>
	<line class="st0" x1="0" y1="-5" x2="70" y2="-5"/>
	<line class="st0" x1="0" y1="-4" x2="70" y2="-4"/>
	<line class="st0" x1="0" y1="-3" x2="70" y2="-3"/>
	<line class="st0" x1="0" y1="-2" x2="70" y2="-2"/>
	<line class="st0" x1="0" y1="-1" x2="70" y2="-1"/>
	<line class="st0" x1="0" y1="0" x2="70" y2="0"/>
	<line class="st0" x1="0" y1="1" x2="70" y2="1"/>
	<line class="st0" x1="0" y1="2" x2="70" y2="2"/>
	<line class="st0" x1="0" y1="3" x2="70" y2="3"/>
	<line class="st0" x1="0" y1="4" x2="70" y2="4"/>
	<line class="st0" x1="0" y1="5" x2="70" y2="5"/>
	<line class="st0" x1="0" y1="6" x2="70" y2="6"/>
	<line class="st0" x1="0" y1="7" x2="70" y2="7"/>
	<line class="st0" x1="0" y1="8" x2="70" y2="8"/>
	<line class="st0" x1="0" y1="9" x2="70" y2="9"/>
	<line class="st0" x1="0" y1="10" x2="70" y2="10"/>
	<line class="st0" x1="0" y1="11" x2="70" y2="11"/>
	<line class="st0" x1="0" y1="12" x2="70" y2="12"/>
	<line class="st0" x1="0" y1="13" x2="70" y2="13"/>
	<line class="st0" x1="0" y1="14" x2="70" y2="14"/>
	<line class="st0" x1="0" y1="15" x2="70" y2="15"/>
	<line class="st0" x1="0" y1="16" x2="70" y2="16"/>
	<line class="st0" x1="0" y1="17" x2="70" y2="17"/>
	<line class="st0" x1="0" y1="18" x2="70" y2="18"/>
	<line class="st0" x1="0" y1="19" x2="70" y2="19"/>
	<line class="st0" x1="0" y1="20" x2="70" y2="20"/>
	<line class="st0" x1="0" y1="21" x2="70" y2="21"/>
</g>
<g id="y_x5F_grid">
	<line class="st1" x1="1" y1="-9" x2="1" y2="22"/>
	<line class="st1" x1="2" y1="-9" x2="2" y2="22"/>
	<line class="st1" x1="3" y1="-9" x2="3" y2="22"/>
	<line class="st1" x1="4" y1="-9" x2="4" y2="22"/>
	<line class="st1" x1="5" y1="-9" x2="5" y2="22"/>
	<line class="st1" x1="6" y1="-9" x2="6" y2="22"/>
	<line class="st1" x1="7" y1="-9" x2="7" y2="22"/>
	<line class="st1" x1="8" y1="-9" x2="8" y2="22"/>
	<line class="st1" x1="9" y1="-9" x2="9" y2="22"/>
	<line class="st1" x1="10" y1="-9" x2="10" y2="22"/>
	<line class="st1" x1="11" y1="-9" x2="11" y2="22"/>
	<line class="st1" x1="12" y1="-9" x2="12" y2="22"/>
	<line class="st1" x1="13" y1="-9" x2="13" y2="22"/>
	<line class="st1" x1="14" y1="-9" x2="14" y2="22"/>
	<line class="st1" x1="15" y1="-9" x2="15" y2="22"/>
	<line class="st1" x1="16" y1="-9" x2="16" y2="22"/>
	<line class="st1" x1="17" y1="-9" x2="17" y2="22"/>
	<line class="st1" x1="18" y1="-9" x2="18" y2="22"/>
	<line class="st1" x1="19" y1="-9" x2="19" y2="22"/>
	<line class="st1" x1="20" y1="-9" x2="20" y2="22"/>
	<line class="st1" x1="21" y1="-9" x2="21" y2="22"/>
	<line class="st1" x1="22" y1="-9" x2="22" y2="22"/>
	<line class="st1" x1="23" y1="-9" x2="23" y2="22"/>
	<line class="st1" x1="24" y1="-9" x2="24" y2="22"/>
	<line class="st1" x1="25" y1="-9" x2="25" y2="22"/>
	<line class="st1" x1="26" y1="-9" x2="26" y2="22"/>
	<line class="st1" x1="27" y1="-9" x2="27" y2="22"/>
	<line class="st1" x1="28" y1="-9" x2="28" y2="22"/>
	<line class="st1" x1="29" y1="-9" x2="29" y2="22"/>
	<line class="st1" x1="30" y1="-9" x2="30" y2="22"/>
	<line class="st1" x1="31" y1="-9" x2="31" y2="22"/>
	<line class="st1" x1="32" y1="-9" x2="32" y2="22"/>
	<line class="st1" x1="33" y1="-9" x2="33" y2="22"/>
	<line class="st1" x1="34" y1="-9" x2="34" y2="22"/>
	<line class="st1" x1="35" y1="-9" x2="35" y2="22"/>
	<line class="st1" x1="36" y1="-9" x2="36" y2="22"/>
	<line class="st1" x1="37" y1="-9" x2="37" y2="22"/>
	<line class="st1" x1="38" y1="-9" x2="38" y2="22"/>
	<line class="st1" x1="39" y1="-9" x2="39" y2="22"/>
	<line class="st1" x1="40" y1="-9" x2="40" y2="22"/>
	<line class="st1" x1="41" y1="-9" x2="41" y2="22"/>
	<line class="st1" x1="42" y1="-9" x2="42" y2="22"/>
	<line class="st1" x1="43" y1="-9" x2="43" y2="22"/>
	<line class="st1" x1="44" y1="-9" x2="44" y2="22"/>
	<line class="st1" x1="45" y1="-9" x2="45" y2="22"/>
	<line class="st1" x1="46" y1="-9" x2="46" y2="22"/>
	<line class="st1" x1="47" y1="-9" x2="47" y2="22"/>
	<line class="st1" x1="48" y1="-9" x2="48" y2="22"/>
	<line class="st1" x1="49" y1="-9" x2="49" y2="22"/>
	<line class="st1" x1="50" y1="-9" x2="50" y2="22"/>
	<line class="st1" x1="51" y1="-9" x2="51" y2="22"/>
	<line class="st1" x1="52" y1="-9" x2="52" y2="22"/>
	<line class="st1" x1="53" y1="-9" x2="53" y2="22"/>
	<line class="st1" x1="54" y1="-9" x2="54" y2="22"/>
	<line class="st1" x1="55" y1="-9" x2="55" y2="22"/>
	<line class="st1" x1="56" y1="-9" x2="56" y2="22"/>
	<line class="st1" x1="57" y1="-9" x2="57" y2="22"/>
	<line class="st1" x1="58" y1="-9" x2="58" y2="22"/>
	<line class="st1" x1="59" y1="-9" x2="59" y2="22"/>
	<line class="st1" x1="60" y1="-9" x2="60" y2="22"/>
	<line class="st1" x1="61" y1="-9" x2="61" y2="22"/>
	<line class="st1" x1="62" y1="-9" x2="62" y2="22"/>
	<line class="st1" x1="63" y1="-9" x2="63" y2="22"/>
	<line class="st1" x1="64" y1="-9" x2="64" y2="22"/>
	<line class="st1" x1="65" y1="-9" x2="65" y2="22"/>
	<line class="st1" x1="66" y1="-9" x2="66" y2="22"/>
	<line class="st1" x1="67" y1="-9" x2="67" y2="22"/>
	<line class="st1" x1="68" y1="-9" x2="68" y2="22"/>
	<line class="st1" x1="69" y1="-9" x2="69" y2="22"/>
	<path class="st1" d="M70-9"/>
</g>
<path class="st2" d="M5,5C15-5,25,15,35,5C45,15,55-5,65,5v15H5V5z"/>
<circle class="st3" cx="20" cy="5" r="0.2"/>
<text transform="matrix(1 0 0 1 20.3377 4.3226)" class="st3 st4 st5">B</text>
<text transform="matrix(1 0 0 1 22.6093 5.6548)" class="st3 st4 st6">1</text>
<circle class="st3" cx="50" cy="5" r="0.2"/>
<text transform="matrix(1 0 0 1 50.3377 8.3226)" class="st3 st4 st5">B</text>
<text transform="matrix(1 0 0 1 52.6093 9.6548)" class="st3 st4 st6">2</text>
<g id="breakdown">
	<path class="st7" d="M50,5c5-2.5,10-5,15,0"/>
	<path class="st8" d="M35,5c5,5,10,2.5,15,0"/>
	<path class="st7" d="M20,5c5,2.5,10,5,15,0"/>
	<path class="st8" d="M5,5c5-5,10-2.5,15,0"/>
</g>
</svg>
