<?xml version="1.0" encoding="utf-8"?>
<!-- Generator: Adobe Illustrator 26.0.1, SVG Export Plug-In . SVG Version: 6.00 Build 0)  -->
<svg version="1.1" id="Layer_1" xmlns="http://www.w3.org/2000/svg" xmlns:xlink="http://www.w3.org/1999/xlink" x="0px" y="0px"
	 viewBox="0 0 110 35" style="enable-background:new 0 0 110 35;" xml:space="preserve">
<style type="text/css">
	.st0{opacity:0.5;fill:none;stroke:#5C5F77;stroke-width:5.000000e-02;stroke-miterlimit:10;enable-background:new    ;}
	.st1{fill:none;stroke:#5C5F77;stroke-width:5.000000e-02;stroke-miterlimit:10;}
	.st2{opacity:0.7;fill:#40A02B;enable-background:new    ;}
	.st3{font-family:'CambriaMath';}
	.st4{font-size:6px;}
	.st5{fill:#8839EF;}
	.st6{fill:none;stroke:#8839EF;stroke-width:0.2;stroke-miterlimit:10;}
	.st7{fill:#D20F39;}
	.st8{font-size:3px;}
	.st9{fill:none;stroke:#D20F39;stroke-width:0.2;stroke-miterlimit:10;}
	.st10{display:none;fill:#1E66F5;}
	.st11{display:none;fill:#D20F39;}
	.st12{display:none;fill:none;stroke:#D20F39;stroke-width:0.2;stroke-miterlimit:10;}
	.st13{display:none;fill:#1E66F5;enable-background:new    ;}
	.st14{font-size:4px;}
	.st15{font-size:2.332px;}
	.st16{display:none;fill:none;stroke:#1E66F5;stroke-width:0.2;stroke-miterlimit:10;}
	.st17{display:none;fill:none;stroke:#8839EF;stroke-width:0.2;stroke-miterlimit:10;}
</style>
<g id="x_x5F_grid">
	<line class="st0" x1="0" y1="1" x2="110" y2="1"/>
	<line class="st0" x1="0" y1="2" x2="110" y2="2"/>
	<line class="st0" x1="0" y1="3" x2="110" y2="3"/>
	<line class="st0" x1="0" y1="4" x2="110" y2="4"/>
	<line class="st0" x1="0" y1="5" x2="110" y2="5"/>
	<line class="st0" x1="0" y1="6" x2="110" y2="6"/>
	<line class="st0" x1="0" y1="7" x2="110" y2="7"/>
	<line class="st0" x1="0" y1="8" x2="110" y2="8"/>
	<line class="st0" x1="0" y1="9" x2="110" y2="9"/>
	<line class="st0" x1="0" y1="10" x2="110" y2="10"/>
	<line class="st0" x1="0" y1="11" x2="110" y2="11"/>
	<line class="st0" x1="0" y1="12" x2="110" y2="12"/>
	<line class="st0" x1="0" y1="13" x2="110" y2="13"/>
	<line class="st0" x1="0" y1="14" x2="110" y2="14"/>
	<line class="st0" x1="0" y1="15" x2="110" y2="15"/>
	<line class="st0" x1="0" y1="16" x2="110" y2="16"/>
	<line class="st0" x1="0" y1="17" x2="110" y2="17"/>
	<line class="st0" x1="0" y1="18" x2="110" y2="18"/>
	<line class="st0" x1="0" y1="19" x2="110" y2="19"/>
	<line class="st0" x1="0" y1="20" x2="110" y2="20"/>
	<line class="st0" x1="0" y1="21" x2="110" y2="21"/>
	<line class="st0" x1="0" y1="22" x2="110" y2="22"/>
	<line class="st0" x1="0" y1="23" x2="110" y2="23"/>
	<line class="st0" x1="0" y1="24" x2="110" y2="24"/>
	<line class="st0" x1="0" y1="25" x2="110" y2="25"/>
	<line class="st0" x1="0" y1="26" x2="110" y2="26"/>
	<line class="st0" x1="0" y1="27" x2="110" y2="27"/>
	<line class="st0" x1="0" y1="28" x2="110" y2="28"/>
	<line class="st0" x1="0" y1="29" x2="110" y2="29"/>
	<line class="st0" x1="0" y1="30" x2="110" y2="30"/>
	<line class="st0" x1="0" y1="31" x2="110" y2="31"/>
	<line class="st0" x1="0" y1="32" x2="110" y2="32"/>
	<line class="st0" x1="0" y1="33" x2="110" y2="33"/>
	<line class="st0" x1="0" y1="34" x2="110" y2="34"/>
</g>
<g id="y_x5F_grid">
	<line class="st1" x1="1" y1="0" x2="1" y2="35"/>
	<line class="st1" x1="2" y1="0" x2="2" y2="35"/>
	<line class="st1" x1="3" y1="0" x2="3" y2="35"/>
	<line class="st1" x1="4" y1="0" x2="4" y2="35"/>
	<line class="st1" x1="5" y1="0" x2="5" y2="35"/>
	<line class="st1" x1="6" y1="0" x2="6" y2="35"/>
	<line class="st1" x1="7" y1="0" x2="7" y2="35"/>
	<line class="st1" x1="8" y1="0" x2="8" y2="35"/>
	<line class="st1" x1="9" y1="0" x2="9" y2="35"/>
	<line class="st1" x1="10" y1="0" x2="10" y2="35"/>
	<line class="st1" x1="11" y1="0" x2="11" y2="35"/>
	<line class="st1" x1="12" y1="0" x2="12" y2="35"/>
	<line class="st1" x1="13" y1="0" x2="13" y2="35"/>
	<line class="st1" x1="14" y1="0" x2="14" y2="35"/>
	<line class="st1" x1="15" y1="0" x2="15" y2="35"/>
	<line class="st1" x1="16" y1="0" x2="16" y2="35"/>
	<line class="st1" x1="17" y1="0" x2="17" y2="35"/>
	<line class="st1" x1="18" y1="0" x2="18" y2="35"/>
	<line class="st1" x1="19" y1="0" x2="19" y2="35"/>
	<line class="st1" x1="20" y1="0" x2="20" y2="35"/>
	<line class="st1" x1="21" y1="0" x2="21" y2="35"/>
	<line class="st1" x1="22" y1="0" x2="22" y2="35"/>
	<line class="st1" x1="23" y1="0" x2="23" y2="35"/>
	<line class="st1" x1="24" y1="0" x2="24" y2="35"/>
	<line class="st1" x1="25" y1="0" x2="25" y2="35"/>
	<line class="st1" x1="26" y1="0" x2="26" y2="35"/>
	<line class="st1" x1="27" y1="0" x2="27" y2="35"/>
	<line class="st1" x1="28" y1="0" x2="28" y2="35"/>
	<line class="st1" x1="29" y1="0" x2="29" y2="35"/>
	<line class="st1" x1="30" y1="0" x2="30" y2="35"/>
	<line class="st1" x1="31" y1="0" x2="31" y2="35"/>
	<line class="st1" x1="32" y1="0" x2="32" y2="35"/>
	<line class="st1" x1="33" y1="0" x2="33" y2="35"/>
	<line class="st1" x1="34" y1="0" x2="34" y2="35"/>
	<line class="st1" x1="35" y1="0" x2="35" y2="35"/>
	<line class="st1" x1="36" y1="0" x2="36" y2="35"/>
	<line class="st1" x1="37" y1="0" x2="37" y2="35"/>
	<line class="st1" x1="38" y1="0" x2="38" y2="35"/>
	<line class="st1" x1="39" y1="0" x2="39" y2="35"/>
	<line class="st1" x1="40" y1="0" x2="40" y2="35"/>
	<line class="st1" x1="41" y1="0" x2="41" y2="35"/>
	<line class="st1" x1="42" y1="0" x2="42" y2="35"/>
	<line class="st1" x1="43" y1="0" x2="43" y2="35"/>
	<line class="st1" x1="44" y1="0" x2="44" y2="35"/>
	<line class="st1" x1="45" y1="0" x2="45" y2="35"/>
	<line class="st1" x1="46" y1="0" x2="46" y2="35"/>
	<line class="st1" x1="47" y1="0" x2="47" y2="35"/>
	<line class="st1" x1="48" y1="0" x2="48" y2="35"/>
	<line class="st1" x1="49" y1="0" x2="49" y2="35"/>
	<line class="st1" x1="50" y1="0" x2="50" y2="35"/>
	<line class="st1" x1="51" y1="0" x2="51" y2="35"/>
	<line class="st1" x1="52" y1="0" x2="52" y2="35"/>
	<line class="st1" x1="53" y1="0" x2="53" y2="35"/>
	<line class="st1" x1="54" y1="0" x2="54" y2="35"/>
	<line class="st1" x1="55" y1="0" x2="55" y2="35"/>
	<line class="st1" x1="56" y1="0" x2="56" y2="35"/>
	<line class="st1" x1="57" y1="0" x2="57" y2="35"/>
	<line class="st1" x1="58" y1="0" x2="58" y2="35"/>
	<line class="st1" x1="59" y1="0" x2="59" y2="35"/>
	<line class="st1" x1="60" y1="0" x2="60" y2="35"/>
	<line class="st1" x1="61" y1="0" x2="61" y2="35"/>
	<line class="st1" x1="62" y1="0" x2="62" y2="35"/>
	<line class="st1" x1="63" y1="0" x2="63" y2="35"/>
	<line class="st1" x1="64" y1="0" x2="64" y2="35"/>
	<line class="st1" x1="65" y1="0" x2="65" y2="35"/>
	<line class="st1" x1="66" y1="0" x2="66" y2="35"/>
	<line class="st1" x1="67" y1="0" x2="67" y2="35"/>
	<line class="st1" x1="68" y1="0" x2="68" y2="35"/>
	<line class="st1" x1="69" y1="0" x2="69" y2="35"/>
	<line class="st1" x1="70" y1="0" x2="70" y2="35"/>
	<line class="st1" x1="71" y1="0" x2="71" y2="35"/>
	<line class="st1" x1="72" y1="0" x2="72" y2="35"/>
	<line class="st1" x1="73" y1="0" x2="73" y2="35"/>
	<line class="st1" x1="74" y1="0" x2="74" y2="35"/>
	<line class="st1" x1="75" y1="0" x2="75" y2="35"/>
	<line class="st1" x1="76" y1="0" x2="76" y2="35"/>
	<line class="st1" x1="77" y1="0" x2="77" y2="35"/>
	<line class="st1" x1="78" y1="0" x2="78" y2="35"/>
	<line class="st1" x1="79" y1="0" x2="79" y2="35"/>
	<line class="st1" x1="80" y1="0" x2="80" y2="35"/>
	<line class="st1" x1="81" y1="0" x2="81" y2="35"/>
	<line class="st1" x1="82" y1="0" x2="82" y2="35"/>
	<line class="st1" x1="83" y1="0" x2="83" y2="35"/>
	<line class="st1" x1="84" y1="0" x2="84" y2="35"/>
	<line class="st1" x1="85" y1="0" x2="85" y2="35"/>
	<line class="st1" x1="86" y1="0" x2="86" y2="35"/>
	<line class="st1" x1="87" y1="0" x2="87" y2="35"/>
	<line class="st1" x1="88" y1="0" x2="88" y2="35"/>
	<line class="st1" x1="89" y1="0" x2="89" y2="35"/>
	<line class="st1" x1="90" y1="0" x2="90" y2="35"/>
	<line class="st1" x1="91" y1="0" x2="91" y2="35"/>
	<line class="st1" x1="92" y1="0" x2="92" y2="35"/>
	<line class="st1" x1="93" y1="0" x2="93" y2="35"/>
	<line class="st1" x1="94" y1="0" x2="94" y2="35"/>
	<line class="st1" x1="95" y1="0" x2="95" y2="35"/>
	<line class="st1" x1="96" y1="0" x2="96" y2="35"/>
	<line class="st1" x1="97" y1="0" x2="97" y2="35"/>
	<line class="st1" x1="98" y1="0" x2="98" y2="35"/>
	<line class="st1" x1="99" y1="0" x2="99" y2="35"/>
	<line class="st1" x1="100" y1="0" x2="100" y2="35"/>
	<line class="st1" x1="101" y1="0" x2="101" y2="35"/>
	<line class="st1" x1="102" y1="0" x2="102" y2="35"/>
	<line class="st1" x1="103" y1="0" x2="103" y2="35"/>
	<line class="st1" x1="104" y1="0" x2="104" y2="35"/>
	<line class="st1" x1="105" y1="0" x2="105" y2="35"/>
	<line class="st1" x1="106" y1="0" x2="106" y2="35"/>
	<line class="st1" x1="107" y1="0" x2="107" y2="35"/>
	<line class="st1" x1="108" y1="0" x2="108" y2="35"/>
	<line class="st1" x1="109" y1="0" x2="109" y2="35"/>
</g>
<g id="_x31_">
	<path class="st2" d="M35,28H5V13C15,3,25,3,35,13V28z"/>
	<text transform="matrix(1 0 0 1 18.3389 34.1079)" class="st3 st4">1</text>
	<circle class="st5" cx="5" cy="13" r="0.3"/>
	<circle class="st5" cx="27.5" cy="5.5" r="0.3"/>
	<circle class="st5" cx="12.5" cy="5.5" r="0.3"/>
	<circle class="st5" cx="35" cy="13" r="0.3"/>
	<polyline class="st6" points="5,13 12.5,5.5 27.5,5.5 35,13 	"/>
	<circle class="st7" cx="13.2" cy="7" r="0.3"/>
	<circle class="st7" cx="26.8" cy="7" r="0.3"/>
	<text transform="matrix(1 0 0 1 11.2905 4.3296)" class="st5 st3 st8">V</text>
	<text transform="matrix(0.583 0 0 0.583 13.101 5.3286)" class="st5 st3 st8">1</text>
	<text transform="matrix(1 0 0 1 26.9705 4.7796)" class="st5 st3 st8">V</text>
	<text transform="matrix(0.583 0 0 0.583 28.781 5.7786)" class="st5 st3 st8">2</text>
	<text transform="matrix(1 0 0 1 12.5805 9.9196)" class="st7 st3 st8">N</text>
	<text transform="matrix(0.583 0 0 0.583 14.6225 10.9186)" class="st7 st3 st8">1</text>
	<text transform="matrix(1 0 0 1 25.5215 10.2396)" class="st7 st3 st8">N</text>
	<text transform="matrix(0.583 0 0 0.583 27.5635 11.2386)" class="st7 st3 st8">2</text>
	<line class="st9" x1="12.5" y1="5.5" x2="13.2" y2="7"/>
	<line class="st9" x1="27.5" y1="5.5" x2="26.8" y2="7"/>
</g>
<g id="_x32_">
	<path class="st2" d="M70,28H40V13C50,3,60,3,70,13V28z"/>
	<text transform="matrix(1 0 0 1 53.3389 34.1079)" class="st3 st4">2</text>
	<polyline class="st6" points="40,13 47.5,5.5 62.5,5.5 70,13 	"/>
	<circle class="st7" cx="48.2" cy="7" r="0.3"/>
	<circle class="st7" cx="61.8" cy="7" r="0.3"/>
	<text transform="matrix(1 0 0 1 47.5805 9.9196)" class="st7 st3 st8">N</text>
	<text transform="matrix(0.583 0 0 0.583 49.6225 10.9186)" class="st7 st3 st8">1</text>
	<text transform="matrix(1 0 0 1 60.5215 10.2396)" class="st7 st3 st8">N</text>
	<text transform="matrix(0.583 0 0 0.583 62.5635 11.2386)" class="st7 st3 st8">2</text>
	<circle class="st5" cx="40" cy="13" r="0.3"/>
	<circle class="st5" cx="62.5" cy="5.5" r="0.3"/>
	<circle class="st5" cx="47.5" cy="5.5" r="0.3"/>
	<circle class="st5" cx="70" cy="13" r="0.3"/>
	<line class="st9" x1="42.2" y1="9.8" x2="54.2" y2="4.3"/>
	<line class="st9" x1="55.8" y1="4.3" x2="67.8" y2="9.8"/>
</g>
<g id="_x33_">
	<path class="st2" d="M105,28H75V13c10-10,20-10,30,0V28z"/>
	<text transform="matrix(1 0 0 1 88.3389 34.1079)" class="st3 st4">3</text>
	<circle class="st10" cx="75" cy="13" r="0.3"/>
	<circle class="st10" cx="105" cy="13" r="0.3"/>
	<circle class="st11" cx="90" cy="5.5" r="0.3"/>
	<line class="st12" x1="75" y1="5.5" x2="105" y2="5.5"/>
	<circle class="st10" cx="85" cy="3" r="0.3"/>
	<circle class="st10" cx="95" cy="3" r="0.3"/>
	<text transform="matrix(1 0 0 1 71.6587 10.6802)" class="st13 st3 st14">P</text>
	<text transform="matrix(1 0 0 1 73.9297 12.0127)" class="st13 st3 st15">0</text>
	<text transform="matrix(1 0 0 1 79.6587 3.6802)" class="st13 st3 st14">P</text>
	<text transform="matrix(1 0 0 1 81.9297 5.0127)" class="st13 st3 st15">1</text>
	<text transform="matrix(1 0 0 1 96.6587 3.6802)" class="st13 st3 st14">P</text>
	<text transform="matrix(1 0 0 1 98.9297 5.0127)" class="st13 st3 st15">2</text>
	<text transform="matrix(1 0 0 1 105.6587 11.6802)" class="st13 st3 st14">P</text>
	<text transform="matrix(1 0 0 1 107.9297 13.0127)" class="st13 st3 st15">3</text>
	<line class="st16" x1="75" y1="13" x2="85" y2="3"/>
	<line class="st16" x1="105" y1="13" x2="95" y2="3"/>
	<polyline class="st6" points="75,13 79.1,8.9 86.6,5.5 93.4,5.5 100.9,8.9 105,13 	"/>
	<circle class="st5" cx="75" cy="13" r="0.3"/>
	<circle class="st5" cx="79.1" cy="8.9" r="0.3"/>
	<circle class="st5" cx="86.6" cy="5.5" r="0.3"/>
	<circle class="st5" cx="93.4" cy="5.5" r="0.3"/>
	<circle class="st5" cx="100.9" cy="8.9" r="0.3"/>
	<circle class="st5" cx="105" cy="13" r="0.3"/>
</g>
<polyline class="st17" points="75,13 82.5,5.5 97.5,5.5 105,13 "/>
<line class="st12" x1="77.2" y1="9.8" x2="89.2" y2="4.3"/>
<line class="st12" x1="90.8" y1="4.3" x2="102.8" y2="9.8"/>
</svg>
