<?xml version="1.0" encoding="utf-8"?>
<!-- Generator: Adobe Illustrator 26.0.1, SVG Export Plug-In . SVG Version: 6.00 Build 0)  -->
<svg version="1.1" id="Layer_1" xmlns="http://www.w3.org/2000/svg" xmlns:xlink="http://www.w3.org/1999/xlink" x="0px" y="0px"
	 viewBox="0 0 110 28" style="enable-background:new 0 0 110 28;" xml:space="preserve">
<style type="text/css">
	.st0{opacity:0.5;fill:none;stroke:#5C5F77;stroke-width:5.000000e-02;stroke-miterlimit:10;enable-background:new    ;}
	.st1{fill:none;stroke:#5C5F77;stroke-width:5.000000e-02;stroke-miterlimit:10;}
	.st2{font-family:'CambriaMath';}
	.st3{font-size:6px;}
	.st4{opacity:0.7;fill:#40A02B;enable-background:new    ;}
	.st5{fill:none;stroke:#D20F39;stroke-width:0.2;stroke-miterlimit:10;}
	.st6{fill:#8839EF;}
	.st7{fill:none;stroke:#8839EF;stroke-width:0.2;stroke-miterlimit:10;}
	.st8{display:none;}
	.st9{display:inline;fill:#8839EF;}
	.st10{font-size:3px;}
	.st11{fill:#D20F39;}
</style>
<g id="x_x5F_grid_00000157307981907937972130000003125281318253666986_">
	<line class="st0" x1="0" y1="1" x2="110" y2="1"/>
	<line class="st0" x1="0" y1="2" x2="110" y2="2"/>
	<line class="st0" x1="0" y1="3" x2="110" y2="3"/>
	<line class="st0" x1="0" y1="4" x2="110" y2="4"/>
	<line class="st0" x1="0" y1="5" x2="110" y2="5"/>
	<line class="st0" x1="0" y1="6" x2="110" y2="6"/>
	<line class="st0" x1="0" y1="7" x2="110" y2="7"/>
	<line class="st0" x1="0" y1="8" x2="110" y2="8"/>
	<line class="st0" x1="0" y1="9" x2="110" y2="9"/>
	<line class="st0" x1="0" y1="10" x2="110" y2="10"/>
	<line class="st0" x1="0" y1="11" x2="110" y2="11"/>
	<line class="st0" x1="0" y1="12" x2="110" y2="12"/>
	<line class="st0" x1="0" y1="13" x2="110" y2="13"/>
	<line class="st0" x1="0" y1="14" x2="110" y2="14"/>
	<line class="st0" x1="0" y1="15" x2="110" y2="15"/>
	<line class="st0" x1="0" y1="16" x2="110" y2="16"/>
	<line class="st0" x1="0" y1="17" x2="110" y2="17"/>
	<line class="st0" x1="0" y1="18" x2="110" y2="18"/>
	<line class="st0" x1="0" y1="19" x2="110" y2="19"/>
	<line class="st0" x1="0" y1="20" x2="110" y2="20"/>
	<line class="st0" x1="0" y1="21" x2="110" y2="21"/>
	<line class="st0" x1="0" y1="22" x2="110" y2="22"/>
	<line class="st0" x1="0" y1="23" x2="110" y2="23"/>
	<line class="st0" x1="0" y1="24" x2="110" y2="24"/>
	<line class="st0" x1="0" y1="25" x2="110" y2="25"/>
	<line class="st0" x1="0" y1="26" x2="110" y2="26"/>
	<line class="st0" x1="0" y1="27" x2="110" y2="27"/>
</g>
<g id="y_x5F_grid_00000115495537550553526720000006112660415580557744_">
	<line class="st1" x1="1" y1="0" x2="1" y2="28"/>
	<line class="st1" x1="2" y1="0" x2="2" y2="28"/>
	<line class="st1" x1="3" y1="0" x2="3" y2="28"/>
	<line class="st1" x1="4" y1="0" x2="4" y2="28"/>
	<line class="st1" x1="5" y1="0" x2="5" y2="28"/>
	<line class="st1" x1="6" y1="0" x2="6" y2="28"/>
	<line class="st1" x1="7" y1="0" x2="7" y2="28"/>
	<line class="st1" x1="8" y1="0" x2="8" y2="28"/>
	<line class="st1" x1="9" y1="0" x2="9" y2="28"/>
	<line class="st1" x1="10" y1="0" x2="10" y2="28"/>
	<line class="st1" x1="11" y1="0" x2="11" y2="28"/>
	<line class="st1" x1="12" y1="0" x2="12" y2="28"/>
	<line class="st1" x1="13" y1="0" x2="13" y2="28"/>
	<line class="st1" x1="14" y1="0" x2="14" y2="28"/>
	<line class="st1" x1="15" y1="0" x2="15" y2="28"/>
	<line class="st1" x1="16" y1="0" x2="16" y2="28"/>
	<line class="st1" x1="17" y1="0" x2="17" y2="28"/>
	<line class="st1" x1="18" y1="0" x2="18" y2="28"/>
	<line class="st1" x1="19" y1="0" x2="19" y2="28"/>
	<line class="st1" x1="20" y1="0" x2="20" y2="28"/>
	<line class="st1" x1="21" y1="0" x2="21" y2="28"/>
	<line class="st1" x1="22" y1="0" x2="22" y2="28"/>
	<line class="st1" x1="23" y1="0" x2="23" y2="28"/>
	<line class="st1" x1="24" y1="0" x2="24" y2="28"/>
	<line class="st1" x1="25" y1="0" x2="25" y2="28"/>
	<line class="st1" x1="26" y1="0" x2="26" y2="28"/>
	<line class="st1" x1="27" y1="0" x2="27" y2="28"/>
	<line class="st1" x1="28" y1="0" x2="28" y2="28"/>
	<line class="st1" x1="29" y1="0" x2="29" y2="28"/>
	<line class="st1" x1="30" y1="0" x2="30" y2="28"/>
	<line class="st1" x1="31" y1="0" x2="31" y2="28"/>
	<line class="st1" x1="32" y1="0" x2="32" y2="28"/>
	<line class="st1" x1="33" y1="0" x2="33" y2="28"/>
	<line class="st1" x1="34" y1="0" x2="34" y2="28"/>
	<line class="st1" x1="35" y1="0" x2="35" y2="28"/>
	<line class="st1" x1="36" y1="0" x2="36" y2="28"/>
	<line class="st1" x1="37" y1="0" x2="37" y2="28"/>
	<line class="st1" x1="38" y1="0" x2="38" y2="28"/>
	<line class="st1" x1="39" y1="0" x2="39" y2="28"/>
	<line class="st1" x1="40" y1="0" x2="40" y2="28"/>
	<line class="st1" x1="41" y1="0" x2="41" y2="28"/>
	<line class="st1" x1="42" y1="0" x2="42" y2="28"/>
	<line class="st1" x1="43" y1="0" x2="43" y2="28"/>
	<line class="st1" x1="44" y1="0" x2="44" y2="28"/>
	<line class="st1" x1="45" y1="0" x2="45" y2="28"/>
	<line class="st1" x1="46" y1="0" x2="46" y2="28"/>
	<line class="st1" x1="47" y1="0" x2="47" y2="28"/>
	<line class="st1" x1="48" y1="0" x2="48" y2="28"/>
	<line class="st1" x1="49" y1="0" x2="49" y2="28"/>
	<line class="st1" x1="50" y1="0" x2="50" y2="28"/>
	<line class="st1" x1="51" y1="0" x2="51" y2="28"/>
	<line class="st1" x1="52" y1="0" x2="52" y2="28"/>
	<line class="st1" x1="53" y1="0" x2="53" y2="28"/>
	<line class="st1" x1="54" y1="0" x2="54" y2="28"/>
	<line class="st1" x1="55" y1="0" x2="55" y2="28"/>
	<line class="st1" x1="56" y1="0" x2="56" y2="28"/>
	<line class="st1" x1="57" y1="0" x2="57" y2="28"/>
	<line class="st1" x1="58" y1="0" x2="58" y2="28"/>
	<line class="st1" x1="59" y1="0" x2="59" y2="28"/>
	<line class="st1" x1="60" y1="0" x2="60" y2="28"/>
	<line class="st1" x1="61" y1="0" x2="61" y2="28"/>
	<line class="st1" x1="62" y1="0" x2="62" y2="28"/>
	<line class="st1" x1="63" y1="0" x2="63" y2="28"/>
	<line class="st1" x1="64" y1="0" x2="64" y2="28"/>
	<line class="st1" x1="65" y1="0" x2="65" y2="28"/>
	<line class="st1" x1="66" y1="0" x2="66" y2="28"/>
	<line class="st1" x1="67" y1="0" x2="67" y2="28"/>
	<line class="st1" x1="68" y1="0" x2="68" y2="28"/>
	<line class="st1" x1="69" y1="0" x2="69" y2="28"/>
	<line class="st1" x1="70" y1="0" x2="70" y2="28"/>
	<line class="st1" x1="71" y1="0" x2="71" y2="28"/>
	<line class="st1" x1="72" y1="0" x2="72" y2="28"/>
	<line class="st1" x1="73" y1="0" x2="73" y2="28"/>
	<line class="st1" x1="74" y1="0" x2="74" y2="28"/>
	<line class="st1" x1="75" y1="0" x2="75" y2="28"/>
	<line class="st1" x1="76" y1="0" x2="76" y2="28"/>
	<line class="st1" x1="77" y1="0" x2="77" y2="28"/>
	<line class="st1" x1="78" y1="0" x2="78" y2="28"/>
	<line class="st1" x1="79" y1="0" x2="79" y2="28"/>
	<line class="st1" x1="80" y1="0" x2="80" y2="28"/>
	<line class="st1" x1="81" y1="0" x2="81" y2="28"/>
	<line class="st1" x1="82" y1="0" x2="82" y2="28"/>
	<line class="st1" x1="83" y1="0" x2="83" y2="28"/>
	<line class="st1" x1="84" y1="0" x2="84" y2="28"/>
	<line class="st1" x1="85" y1="0" x2="85" y2="28"/>
	<line class="st1" x1="86" y1="0" x2="86" y2="28"/>
	<line class="st1" x1="87" y1="0" x2="87" y2="28"/>
	<line class="st1" x1="88" y1="0" x2="88" y2="28"/>
	<line class="st1" x1="89" y1="0" x2="89" y2="28"/>
	<line class="st1" x1="90" y1="0" x2="90" y2="28"/>
	<line class="st1" x1="91" y1="0" x2="91" y2="28"/>
	<line class="st1" x1="92" y1="0" x2="92" y2="28"/>
	<line class="st1" x1="93" y1="0" x2="93" y2="28"/>
	<line class="st1" x1="94" y1="0" x2="94" y2="28"/>
	<line class="st1" x1="95" y1="0" x2="95" y2="28"/>
	<line class="st1" x1="96" y1="0" x2="96" y2="28"/>
	<line class="st1" x1="97" y1="0" x2="97" y2="28"/>
	<line class="st1" x1="98" y1="0" x2="98" y2="28"/>
	<line class="st1" x1="99" y1="0" x2="99" y2="28"/>
	<line class="st1" x1="100" y1="0" x2="100" y2="28"/>
	<line class="st1" x1="101" y1="0" x2="101" y2="28"/>
	<line class="st1" x1="102" y1="0" x2="102" y2="28"/>
	<line class="st1" x1="103" y1="0" x2="103" y2="28"/>
	<line class="st1" x1="104" y1="0" x2="104" y2="28"/>
	<line class="st1" x1="105" y1="0" x2="105" y2="28"/>
	<line class="st1" x1="106" y1="0" x2="106" y2="28"/>
	<line class="st1" x1="107" y1="0" x2="107" y2="28"/>
	<line class="st1" x1="108" y1="0" x2="108" y2="28"/>
	<line class="st1" x1="109" y1="0" x2="109" y2="28"/>
</g>
<g id="_x31_">
	<text transform="matrix(1 0 0 1 18.3389 27.1079)" class="st2 st3">1</text>
	<path class="st4" d="M5,6c10,10,20,10,30,0v15H5V6z"/>
	<line class="st5" x1="5" y1="6" x2="15" y2="16"/>
	<line class="st5" x1="25" y1="16" x2="35" y2="6"/>
	<line class="st5" x1="7.2" y1="9.2" x2="21.2" y2="15.6"/>
	<line class="st5" x1="18.8" y1="15.5" x2="32.8" y2="9.3"/>
	<circle class="st6" cx="5" cy="6" r="0.3"/>
	<circle class="st6" cx="13.2" cy="12" r="0.3"/>
	<circle class="st6" cx="26.8" cy="12" r="0.3"/>
	<circle class="st6" cx="35" cy="6" r="0.3"/>
	<line class="st7" x1="5" y1="6" x2="13.2" y2="12"/>
	<line class="st7" x1="26.8" y1="12" x2="13.2" y2="12"/>
	<line class="st7" x1="26.8" y1="12" x2="35" y2="6"/>
	<g class="st8">
		<text transform="matrix(1 0 0 1 3.9999 4.5696)" class="st9 st2 st10">P</text>
		<text transform="matrix(0.583 0 0 0.583 5.7036 5.5686)" class="st9 st2 st10">0</text>
	</g>
	<g class="st8">
		<text transform="matrix(1 0 0 1 11.9999 10.5696)" class="st9 st2 st10">V</text>
		<text transform="matrix(0.583 0 0 0.583 13.8105 11.5686)" class="st9 st2 st10">1</text>
	</g>
	<g class="st8">
		<text transform="matrix(1 0 0 1 24.5405 10.4796)" class="st9 st2 st10">V</text>
		<text transform="matrix(0.583 0 0 0.583 26.351 11.4786)" class="st9 st2 st10">2</text>
	</g>
	<text transform="matrix(1 0 0 1 32.5405 4.4796)" class="st6 st2 st10">P</text>
	<text transform="matrix(0.583 0 0 0.583 34.2441 5.4786)" class="st6 st2 st10">3</text>
	<text transform="matrix(1 0 0 1 14.0805 11.1496)" class="st11 st2 st10">t</text>
	<text transform="matrix(0.583 0 0 0.583 15.0956 12.1486)" class="st11 st2 st10">1</text>
	<text transform="matrix(1 0 0 1 24.0805 11.1496)" class="st11 st2 st10">t</text>
	<text transform="matrix(0.583 0 0 0.583 25.0956 12.1486)" class="st11 st2 st10">2</text>
	<text transform="matrix(1 0 0 1 30.0805 13.1496)" class="st11 st2 st10">t</text>
	<text transform="matrix(0.583 0 0 0.583 31.0956 14.1486)" class="st11 st2 st10">3</text>
	<text transform="matrix(1 0 0 1 9.0805 13.1496)" class="st11 st2 st10">t</text>
	<text transform="matrix(0.583 0 0 0.583 10.0956 14.1486)" class="st11 st2 st10">0</text>
</g>
<g id="_x32__00000119102172148490483340000002773903220111839873_">
	<text transform="matrix(1 0 0 1 53.3389 27.1079)" class="st2 st3">2</text>
	<path class="st4" d="M40,6c10,10,20,10,30,0v15H40V6z"/>
	<line class="st5" x1="40" y1="6" x2="50" y2="16"/>
	<line class="st5" x1="60" y1="16" x2="70" y2="6"/>
	<line class="st5" x1="42.2" y1="9.2" x2="56.2" y2="15.6"/>
	<line class="st5" x1="42.2" y1="9.2" x2="56.2" y2="15.6"/>
	<line class="st5" x1="53.8" y1="15.5" x2="67.8" y2="9.3"/>
	<line class="st5" x1="53.8" y1="15.5" x2="67.8" y2="9.3"/>
	<circle class="st11" cx="55" cy="15" r="0.3"/>
	<circle class="st11" cx="44.1" cy="10.1" r="0.3"/>
	<circle class="st11" cx="65.9" cy="10.1" r="0.3"/>
	<circle class="st6" cx="40" cy="6" r="0.3"/>
	<circle class="st6" cx="48.2" cy="12" r="0.3"/>
	<circle class="st6" cx="61.8" cy="12" r="0.3"/>
	<circle class="st6" cx="70" cy="6" r="0.3"/>
	<circle class="st11" cx="44.4" cy="9.7" r="0.3"/>
	<circle class="st11" cx="55" cy="13.5" r="0.3"/>
	<circle class="st11" cx="65.6" cy="9.8" r="0.3"/>
	<line class="st5" x1="44.1" y1="10.1" x2="44.4" y2="9.7"/>
	<line class="st5" x1="55" y1="15" x2="55" y2="13.5"/>
	<line class="st5" x1="65.9" y1="10.1" x2="65.6" y2="9.8"/>
	<text transform="matrix(1 0 0 1 42.3505 13.0855)" class="st11 st2 st10">O</text>
	<text transform="matrix(0.583 0 0 0.583 44.3104 14.0846)" class="st11 st2 st10">1</text>
	<text transform="matrix(1 0 0 1 53.9966 17.7795)" class="st11 st2 st10">O</text>
	<text transform="matrix(0.583 0 0 0.583 55.9566 18.7786)" class="st11 st2 st10">2</text>
	<text transform="matrix(1 0 0 1 65.439 12.6795)" class="st11 st2 st10">O</text>
	<text transform="matrix(0.583 0 0 0.583 67.399 13.6786)" class="st11 st2 st10">3</text>
	<text transform="matrix(1 0 0 1 44.3905 8.9055)" class="st11 st2 st10">N</text>
	<text transform="matrix(0.583 0 0 0.583 46.4325 9.9046)" class="st11 st2 st10">1</text>
	<text transform="matrix(1 0 0 1 53.8476 12.6167)" class="st11 st2 st10">N</text>
	<text transform="matrix(0.583 0 0 0.583 55.8896 13.6158)" class="st11 st2 st10">2</text>
	<text transform="matrix(1 0 0 1 63.4698 8.1559)" class="st11 st2 st10">N</text>
	<text transform="matrix(0.583 0 0 0.583 65.5118 9.1549)" class="st11 st2 st10">3</text>
</g>
<g id="_x33_">
	<text transform="matrix(1 0 0 1 88.3389 27.1079)" class="st2 st3">3</text>
	<path class="st4" d="M75,6c10,10,20,10,30,0v15H75V6z"/>
	<circle class="st6" cx="75" cy="6" r="0.3"/>
	<circle class="st6" cx="83.2" cy="12" r="0.3"/>
	<circle class="st6" cx="96.8" cy="12" r="0.3"/>
	<circle class="st6" cx="105" cy="6" r="0.3"/>
	<circle class="st6" cx="79.4" cy="9.7" r="0.3"/>
	<circle class="st6" cx="90" cy="13.5" r="0.3"/>
	<circle class="st6" cx="100.6" cy="9.8" r="0.3"/>
	<polyline class="st7" points="75,6 79.4,9.8 83.2,12 90,13.5 96.8,12 100.6,9.8 105,6 	"/>
</g>
</svg>
