<?xml version="1.0" encoding="utf-8"?>
<!-- Generator: Adobe Illustrator 26.0.1, SVG Export Plug-In . SVG Version: 6.00 Build 0)  -->
<svg version="1.1" id="Layer_1" xmlns="http://www.w3.org/2000/svg" xmlns:xlink="http://www.w3.org/1999/xlink" x="0px" y="0px"
	 viewBox="0 0 50 35" style="enable-background:new 0 0 50 35;" xml:space="preserve">
<style type="text/css">
	.st0{opacity:0.5;fill:none;stroke:#5C5F77;stroke-width:5.000000e-02;stroke-miterlimit:10;}
	.st1{fill:none;stroke:#5C5F77;stroke-width:5.000000e-02;stroke-miterlimit:10;}
	.st2{fill:none;stroke:#5C5F77;stroke-width:0.2;stroke-miterlimit:10;}
	.st3{display:none;}
	.st4{display:inline;}
	.st5{font-family:'CambriaMath';}
	.st6{font-size:2px;}
	.st7{opacity:0.7;fill:#40A02B;}
	.st8{fill:#E64553;stroke:#E64553;stroke-width:0.1;stroke-miterlimit:10;}
	.st9{fill:#E64553;}
	.st10{display:inline;fill:#E64553;}
	.st11{font-size:4px;}
	.st12{font-size:3.9998px;}
	.st13{fill:#8839EF;}
	.st14{fill:none;stroke:#8839EF;stroke-width:0.1;stroke-miterlimit:10;}
	.st15{fill:none;stroke:#8839EF;stroke-width:0.1;stroke-linecap:square;stroke-linejoin:bevel;stroke-miterlimit:10;}
	.st16{font-size:3px;}
	.st17{font-size:1.6px;}
</style>
<g id="x_x5F_grid">
	<line class="st0" x1="0" y1="1" x2="50" y2="1"/>
	<line class="st0" x1="0" y1="2" x2="50" y2="2"/>
	<line class="st0" x1="0" y1="3" x2="50" y2="3"/>
	<line class="st0" x1="0" y1="4" x2="50" y2="4"/>
	<line class="st0" x1="0" y1="5" x2="50" y2="5"/>
	<line class="st0" x1="0" y1="6" x2="50" y2="6"/>
	<line class="st0" x1="0" y1="7" x2="50" y2="7"/>
	<line class="st0" x1="0" y1="8" x2="50" y2="8"/>
	<line class="st0" x1="0" y1="9" x2="50" y2="9"/>
	<line class="st0" x1="0" y1="10" x2="50" y2="10"/>
	<line class="st0" x1="0" y1="11" x2="50" y2="11"/>
	<line class="st0" x1="0" y1="12" x2="50" y2="12"/>
	<line class="st0" x1="0" y1="13" x2="50" y2="13"/>
	<line class="st0" x1="0" y1="14" x2="50" y2="14"/>
	<line class="st0" x1="0" y1="15" x2="50" y2="15"/>
	<line class="st0" x1="0" y1="16" x2="50" y2="16"/>
	<line class="st0" x1="0" y1="17" x2="50" y2="17"/>
	<line class="st0" x1="0" y1="18" x2="50" y2="18"/>
	<line class="st0" x1="0" y1="19" x2="50" y2="19"/>
	<line class="st0" x1="0" y1="20" x2="50" y2="20"/>
	<line class="st0" x1="0" y1="21" x2="50" y2="21"/>
	<line class="st0" x1="0" y1="22" x2="50" y2="22"/>
	<line class="st0" x1="0" y1="23" x2="50" y2="23"/>
	<line class="st0" x1="0" y1="24" x2="50" y2="24"/>
	<line class="st0" x1="0" y1="25" x2="50" y2="25"/>
	<line class="st0" x1="0" y1="26" x2="50" y2="26"/>
	<line class="st0" x1="0" y1="27" x2="50" y2="27"/>
	<line class="st0" x1="0" y1="28" x2="50" y2="28"/>
	<line class="st0" x1="0" y1="29" x2="50" y2="29"/>
	<line class="st0" x1="0" y1="30" x2="50" y2="30"/>
	<line class="st0" x1="0" y1="31" x2="50" y2="31"/>
	<line class="st0" x1="0" y1="32" x2="50" y2="32"/>
	<line class="st0" x1="0" y1="33" x2="50" y2="33"/>
	<line class="st0" x1="0" y1="34" x2="50" y2="34"/>
</g>
<g id="y_x5F_grid">
	<line class="st1" x1="1" y1="0" x2="1" y2="35"/>
	<line class="st1" x1="2" y1="0" x2="2" y2="35"/>
	<line class="st1" x1="3" y1="0" x2="3" y2="35"/>
	<line class="st1" x1="4" y1="0" x2="4" y2="35"/>
	<line class="st1" x1="5" y1="0" x2="5" y2="35"/>
	<line class="st1" x1="6" y1="0" x2="6" y2="35"/>
	<line class="st1" x1="7" y1="0" x2="7" y2="35"/>
	<line class="st1" x1="8" y1="0" x2="8" y2="35"/>
	<line class="st1" x1="9" y1="0" x2="9" y2="35"/>
	<line class="st1" x1="10" y1="0" x2="10" y2="35"/>
	<line class="st1" x1="11" y1="0" x2="11" y2="35"/>
	<line class="st1" x1="12" y1="0" x2="12" y2="35"/>
	<line class="st1" x1="13" y1="0" x2="13" y2="35"/>
	<line class="st1" x1="14" y1="0" x2="14" y2="35"/>
	<line class="st1" x1="15" y1="0" x2="15" y2="35"/>
	<line class="st1" x1="16" y1="0" x2="16" y2="35"/>
	<line class="st1" x1="17" y1="0" x2="17" y2="35"/>
	<line class="st1" x1="18" y1="0" x2="18" y2="35"/>
	<line class="st1" x1="19" y1="0" x2="19" y2="35"/>
	<line class="st1" x1="20" y1="0" x2="20" y2="35"/>
	<line class="st1" x1="21" y1="0" x2="21" y2="35"/>
	<line class="st1" x1="22" y1="0" x2="22" y2="35"/>
	<line class="st1" x1="23" y1="0" x2="23" y2="35"/>
	<line class="st1" x1="24" y1="0" x2="24" y2="35"/>
	<line class="st1" x1="25" y1="0" x2="25" y2="35"/>
	<line class="st1" x1="26" y1="0" x2="26" y2="35"/>
	<line class="st1" x1="27" y1="0" x2="27" y2="35"/>
	<line class="st1" x1="28" y1="0" x2="28" y2="35"/>
	<line class="st1" x1="29" y1="0" x2="29" y2="35"/>
	<line class="st1" x1="30" y1="0" x2="30" y2="35"/>
	<line class="st1" x1="31" y1="0" x2="31" y2="35"/>
	<line class="st1" x1="32" y1="0" x2="32" y2="35"/>
	<line class="st1" x1="33" y1="0" x2="33" y2="35"/>
	<line class="st1" x1="34" y1="0" x2="34" y2="35"/>
	<line class="st1" x1="35" y1="0" x2="35" y2="35"/>
	<line class="st1" x1="36" y1="0" x2="36" y2="35"/>
	<line class="st1" x1="37" y1="0" x2="37" y2="35"/>
	<line class="st1" x1="38" y1="0" x2="38" y2="35"/>
	<line class="st1" x1="39" y1="0" x2="39" y2="35"/>
	<line class="st1" x1="40" y1="0" x2="40" y2="35"/>
	<line class="st1" x1="41" y1="0" x2="41" y2="35"/>
	<line class="st1" x1="42" y1="0" x2="42" y2="35"/>
	<line class="st1" x1="43" y1="0" x2="43" y2="35"/>
	<line class="st1" x1="44" y1="0" x2="44" y2="35"/>
	<line class="st1" x1="45" y1="0" x2="45" y2="35"/>
	<line class="st1" x1="46" y1="0" x2="46" y2="35"/>
	<line class="st1" x1="47" y1="0" x2="47" y2="35"/>
	<line class="st1" x1="48" y1="0" x2="48" y2="35"/>
	<line class="st1" x1="49" y1="0" x2="49" y2="35"/>
</g>
<g id="markers">
	<line class="st2" x1="0" y1="5" x2="3" y2="5"/>
	<line class="st2" x1="0" y1="10" x2="3" y2="10"/>
	<line class="st2" x1="0" y1="15" x2="3" y2="15"/>
	<line class="st2" x1="0" y1="20" x2="3" y2="20"/>
	<line class="st2" x1="5" y1="35" x2="5" y2="32"/>
	<line class="st2" x1="10" y1="35" x2="10" y2="32"/>
	<line class="st2" x1="15" y1="35" x2="15" y2="32"/>
	<line class="st2" x1="20" y1="35" x2="20" y2="32"/>
	<line class="st2" x1="25" y1="35" x2="25" y2="32"/>
	<line class="st2" x1="30" y1="35" x2="30" y2="32"/>
	<line class="st2" x1="35" y1="35" x2="35" y2="32"/>
	<line class="st2" x1="40" y1="35" x2="40" y2="32"/>
	<line class="st2" x1="45" y1="35" x2="45" y2="32"/>
	<g id="numbers" class="st3">
		<text transform="matrix(1 0 0 1 0.9551 4.8498)" class="st4 st5 st6">5</text>
		<text transform="matrix(1 0 0 1 0.9551 9.8498)" class="st4 st5 st6">10</text>
		<text transform="matrix(1 0 0 1 0.9551 14.8498)" class="st4 st5 st6">15</text>
		<text transform="matrix(1 0 0 1 0.9551 19.8498)" class="st4 st5 st6">20</text>
		<text transform="matrix(1 0 0 1 3.46 33.4854)" class="st4 st5 st6">5</text>
		<text transform="matrix(1 0 0 1 7.46 33.4854)" class="st4 st5 st6">10</text>
		<text transform="matrix(1 0 0 1 12.46 33.4854)" class="st4 st5 st6">15</text>
		<text transform="matrix(1 0 0 1 17.46 33.4854)" class="st4 st5 st6">20</text>
		<text transform="matrix(1 0 0 1 22.46 33.4854)" class="st4 st5 st6">25</text>
		<text transform="matrix(1 0 0 1 27.46 33.4854)" class="st4 st5 st6">30</text>
		<text transform="matrix(1 0 0 1 32.46 33.4854)" class="st4 st5 st6">35</text>
		<text transform="matrix(1 0 0 1 37.46 33.4854)" class="st4 st5 st6">40</text>
		<text transform="matrix(1 0 0 1 42.46 33.4854)" class="st4 st5 st6">45</text>
	</g>
</g>
<path class="st7" d="M40,30H10V15C20,5,30,5,40,15V30z"/>
<g id="first">
	<line class="st8" x1="10" y1="15" x2="20" y2="5"/>
	<line class="st8" x1="30" y1="5" x2="20" y2="5"/>
	<line class="st8" x1="30" y1="5" x2="40" y2="15"/>
	<circle class="st9" cx="10" cy="15" r="0.2"/>
	<circle class="st9" cx="20" cy="5" r="0.2"/>
	<circle class="st9" cx="30" cy="5" r="0.2"/>
	<circle class="st9" cx="40" cy="15" r="0.2"/>
	<g class="st3">
		<text transform="matrix(1 0 0 1 6.3381 15.2542)" class="st10 st5 st11">P</text>
		<text transform="matrix(0.583 0 0 0.583 8.6096 16.5862)" class="st10 st5 st11">0</text>
	</g>
	<g class="st3">
		<text transform="matrix(1 0 0 1 15.2343 3.5085)" class="st10 st5 st12">P</text>
		<text transform="matrix(0.583 0 0 0.583 17.5057 4.8406)" class="st10 st5 st12">1</text>
	</g>
	<g class="st3">
		<text transform="matrix(1 0 0 1 30.3382 3.5081)" class="st10 st5 st11">P</text>
		<text transform="matrix(0.583 0 0 0.583 32.6097 4.8401)" class="st10 st5 st11">2</text>
	</g>
	<g class="st3">
		<text transform="matrix(1 0 0 1 41.3381 15.5083)" class="st10 st5 st11">P</text>
		<text transform="matrix(0.583 0 0 0.583 43.6095 16.8403)" class="st10 st5 st11">3</text>
	</g>
</g>
<circle class="st13" cx="16.2" cy="10.1" r="0.2"/>
<line class="st14" x1="12" y1="3" x2="16.2" y2="10.1"/>
<circle class="st13" cx="12" cy="3" r="0.2"/>
<line class="st14" x1="0" y1="19.6" x2="35" y2="-1"/>
<line class="st15" x1="16.5" y1="8.9" x2="16.9" y2="9.7"/>
<line class="st15" x1="15.7" y1="9.4" x2="16.5" y2="8.9"/>
<text transform="matrix(1 0 0 1 9.2343 3.5085)" class="st13 st5 st16">P</text>
<text transform="matrix(0.583 0 0 0.583 10.9379 4.5076)" class="st13 st5 st16">a</text>
<text transform="matrix(1 0 0 1 17.2338 11.3986)" class="st13 st5 st16">P</text>
<text transform="matrix(0.583 0 0 0.583 18.9374 12.3976)" class="st13 st5 st16">b</text>
<text transform="matrix(1 0 0 1 13.5049 13.605)" class="st13 st5 st17">(16.18, 10.09)</text>
<text transform="matrix(1 0 0 1 12.6341 3.0931)" class="st13 st5 st17">(12, 3)</text>
</svg>
