<?xml version="1.0" encoding="utf-8"?>
<!-- Generator: Adobe Illustrator 26.0.1, SVG Export Plug-In . SVG Version: 6.00 Build 0)  -->
<svg version="1.1" id="Layer_1" xmlns="http://www.w3.org/2000/svg" xmlns:xlink="http://www.w3.org/1999/xlink" x="0px" y="0px"
	 viewBox="0 0 80 35" style="enable-background:new 0 0 80 35;" xml:space="preserve">
<style type="text/css">
	.st0{opacity:0.5;fill:none;stroke:#5C5F77;stroke-width:5.000000e-02;stroke-miterlimit:10;}
	.st1{fill:none;stroke:#5C5F77;stroke-width:5.000000e-02;stroke-miterlimit:10;}
	.st2{fill:none;stroke:#5C5F77;stroke-width:0.2;stroke-miterlimit:10;}
	.st3{font-family:'CambriaMath';}
	.st4{font-size:2px;}
	.st5{opacity:0.7;fill:#40A02B;}
	.st6{fill:#E64553;stroke:#E64553;stroke-width:0.1;stroke-miterlimit:10;}
	.st7{fill:#E64553;}
	.st8{font-size:4px;}
	.st9{font-size:3.9998px;}
	.st10{fill:#1E66F5;stroke:#1E66F5;stroke-width:0.1;stroke-miterlimit:10;}
	.st11{fill:#1E66F5;}
	.st12{font-size:3.9997px;}
</style>
<g id="x_x5F_grid">
	<line class="st0" x1="0" y1="1" x2="80" y2="1"/>
	<line class="st0" x1="0" y1="2" x2="80" y2="2"/>
	<line class="st0" x1="0" y1="3" x2="80" y2="3"/>
	<line class="st0" x1="0" y1="4" x2="80" y2="4"/>
	<line class="st0" x1="0" y1="5" x2="80" y2="5"/>
	<line class="st0" x1="0" y1="6" x2="80" y2="6"/>
	<line class="st0" x1="0" y1="7" x2="80" y2="7"/>
	<line class="st0" x1="0" y1="8" x2="80" y2="8"/>
	<line class="st0" x1="0" y1="9" x2="80" y2="9"/>
	<line class="st0" x1="0" y1="10" x2="80" y2="10"/>
	<line class="st0" x1="0" y1="11" x2="80" y2="11"/>
	<line class="st0" x1="0" y1="12" x2="80" y2="12"/>
	<line class="st0" x1="0" y1="13" x2="80" y2="13"/>
	<line class="st0" x1="0" y1="14" x2="80" y2="14"/>
	<line class="st0" x1="0" y1="15" x2="80" y2="15"/>
	<line class="st0" x1="0" y1="16" x2="80" y2="16"/>
	<line class="st0" x1="0" y1="17" x2="80" y2="17"/>
	<line class="st0" x1="0" y1="18" x2="80" y2="18"/>
	<line class="st0" x1="0" y1="19" x2="80" y2="19"/>
	<line class="st0" x1="0" y1="20" x2="80" y2="20"/>
	<line class="st0" x1="0" y1="21" x2="80" y2="21"/>
	<line class="st0" x1="0" y1="22" x2="80" y2="22"/>
	<line class="st0" x1="0" y1="23" x2="80" y2="23"/>
	<line class="st0" x1="0" y1="24" x2="80" y2="24"/>
	<line class="st0" x1="0" y1="25" x2="80" y2="25"/>
	<line class="st0" x1="0" y1="26" x2="80" y2="26"/>
	<line class="st0" x1="0" y1="27" x2="80" y2="27"/>
	<line class="st0" x1="0" y1="28" x2="80" y2="28"/>
	<line class="st0" x1="0" y1="29" x2="80" y2="29"/>
	<line class="st0" x1="0" y1="30" x2="80" y2="30"/>
	<line class="st0" x1="0" y1="31" x2="80" y2="31"/>
	<line class="st0" x1="0" y1="32" x2="80" y2="32"/>
	<line class="st0" x1="0" y1="33" x2="80" y2="33"/>
	<line class="st0" x1="0" y1="34" x2="80" y2="34"/>
</g>
<g id="y_x5F_grid">
	<line class="st1" x1="1" y1="0" x2="1" y2="35"/>
	<line class="st1" x1="2" y1="0" x2="2" y2="35"/>
	<line class="st1" x1="3" y1="0" x2="3" y2="35"/>
	<line class="st1" x1="4" y1="0" x2="4" y2="35"/>
	<line class="st1" x1="5" y1="0" x2="5" y2="35"/>
	<line class="st1" x1="6" y1="0" x2="6" y2="35"/>
	<line class="st1" x1="7" y1="0" x2="7" y2="35"/>
	<line class="st1" x1="8" y1="0" x2="8" y2="35"/>
	<line class="st1" x1="9" y1="0" x2="9" y2="35"/>
	<line class="st1" x1="10" y1="0" x2="10" y2="35"/>
	<line class="st1" x1="11" y1="0" x2="11" y2="35"/>
	<line class="st1" x1="12" y1="0" x2="12" y2="35"/>
	<line class="st1" x1="13" y1="0" x2="13" y2="35"/>
	<line class="st1" x1="14" y1="0" x2="14" y2="35"/>
	<line class="st1" x1="15" y1="0" x2="15" y2="35"/>
	<line class="st1" x1="16" y1="0" x2="16" y2="35"/>
	<line class="st1" x1="17" y1="0" x2="17" y2="35"/>
	<line class="st1" x1="18" y1="0" x2="18" y2="35"/>
	<line class="st1" x1="19" y1="0" x2="19" y2="35"/>
	<line class="st1" x1="20" y1="0" x2="20" y2="35"/>
	<line class="st1" x1="21" y1="0" x2="21" y2="35"/>
	<line class="st1" x1="22" y1="0" x2="22" y2="35"/>
	<line class="st1" x1="23" y1="0" x2="23" y2="35"/>
	<line class="st1" x1="24" y1="0" x2="24" y2="35"/>
	<line class="st1" x1="25" y1="0" x2="25" y2="35"/>
	<line class="st1" x1="26" y1="0" x2="26" y2="35"/>
	<line class="st1" x1="27" y1="0" x2="27" y2="35"/>
	<line class="st1" x1="28" y1="0" x2="28" y2="35"/>
	<line class="st1" x1="29" y1="0" x2="29" y2="35"/>
	<line class="st1" x1="30" y1="0" x2="30" y2="35"/>
	<line class="st1" x1="31" y1="0" x2="31" y2="35"/>
	<line class="st1" x1="32" y1="0" x2="32" y2="35"/>
	<line class="st1" x1="33" y1="0" x2="33" y2="35"/>
	<line class="st1" x1="34" y1="0" x2="34" y2="35"/>
	<line class="st1" x1="35" y1="0" x2="35" y2="35"/>
	<line class="st1" x1="36" y1="0" x2="36" y2="35"/>
	<line class="st1" x1="37" y1="0" x2="37" y2="35"/>
	<line class="st1" x1="38" y1="0" x2="38" y2="35"/>
	<line class="st1" x1="39" y1="0" x2="39" y2="35"/>
	<line class="st1" x1="40" y1="0" x2="40" y2="35"/>
	<line class="st1" x1="41" y1="0" x2="41" y2="35"/>
	<line class="st1" x1="42" y1="0" x2="42" y2="35"/>
	<line class="st1" x1="43" y1="0" x2="43" y2="35"/>
	<line class="st1" x1="44" y1="0" x2="44" y2="35"/>
	<line class="st1" x1="45" y1="0" x2="45" y2="35"/>
	<line class="st1" x1="46" y1="0" x2="46" y2="35"/>
	<line class="st1" x1="47" y1="0" x2="47" y2="35"/>
	<line class="st1" x1="48" y1="0" x2="48" y2="35"/>
	<line class="st1" x1="49" y1="0" x2="49" y2="35"/>
	<line class="st1" x1="50" y1="0" x2="50" y2="35"/>
	<line class="st1" x1="51" y1="0" x2="51" y2="35"/>
	<line class="st1" x1="52" y1="0" x2="52" y2="35"/>
	<line class="st1" x1="53" y1="0" x2="53" y2="35"/>
	<line class="st1" x1="54" y1="0" x2="54" y2="35"/>
	<line class="st1" x1="55" y1="0" x2="55" y2="35"/>
	<line class="st1" x1="56" y1="0" x2="56" y2="35"/>
	<line class="st1" x1="57" y1="0" x2="57" y2="35"/>
	<line class="st1" x1="58" y1="0" x2="58" y2="35"/>
	<line class="st1" x1="59" y1="0" x2="59" y2="35"/>
	<line class="st1" x1="60" y1="0" x2="60" y2="35"/>
	<line class="st1" x1="61" y1="0" x2="61" y2="35"/>
	<line class="st1" x1="62" y1="0" x2="62" y2="35"/>
	<line class="st1" x1="63" y1="0" x2="63" y2="35"/>
	<line class="st1" x1="64" y1="0" x2="64" y2="35"/>
	<line class="st1" x1="65" y1="0" x2="65" y2="35"/>
	<line class="st1" x1="66" y1="0" x2="66" y2="35"/>
	<line class="st1" x1="67" y1="0" x2="67" y2="35"/>
	<line class="st1" x1="68" y1="0" x2="68" y2="35"/>
	<line class="st1" x1="69" y1="0" x2="69" y2="35"/>
	<line class="st1" x1="70" y1="0" x2="70" y2="35"/>
	<line class="st1" x1="71" y1="0" x2="71" y2="35"/>
	<line class="st1" x1="72" y1="0" x2="72" y2="35"/>
	<line class="st1" x1="73" y1="0" x2="73" y2="35"/>
	<line class="st1" x1="74" y1="0" x2="74" y2="35"/>
	<line class="st1" x1="75" y1="0" x2="75" y2="35"/>
	<line class="st1" x1="76" y1="0" x2="76" y2="35"/>
	<line class="st1" x1="77" y1="0" x2="77" y2="35"/>
	<line class="st1" x1="78" y1="0" x2="78" y2="35"/>
	<line class="st1" x1="79" y1="0" x2="79" y2="35"/>
</g>
<g id="markers">
	<line class="st2" x1="0" y1="5" x2="3" y2="5"/>
	<line class="st2" x1="0" y1="10" x2="3" y2="10"/>
	<line class="st2" x1="0" y1="15" x2="3" y2="15"/>
	<line class="st2" x1="0" y1="20" x2="3" y2="20"/>
	<g id="x_x5F_ticks">
		<line class="st2" x1="5" y1="35" x2="5" y2="32"/>
		<line class="st2" x1="10" y1="35" x2="10" y2="32"/>
		<line class="st2" x1="15" y1="35" x2="15" y2="32"/>
		<line class="st2" x1="20" y1="35" x2="20" y2="32"/>
		<line class="st2" x1="25" y1="35" x2="25" y2="32"/>
		<line class="st2" x1="30" y1="35" x2="30" y2="32"/>
		<line class="st2" x1="35" y1="35" x2="35" y2="32"/>
		<line class="st2" x1="40" y1="35" x2="40" y2="32"/>
		<line class="st2" x1="45" y1="35" x2="45" y2="32"/>
		<line class="st2" x1="50" y1="35" x2="50" y2="32"/>
		<line class="st2" x1="55" y1="35" x2="55" y2="32"/>
		<line class="st2" x1="60" y1="35" x2="60" y2="32"/>
		<line class="st2" x1="65" y1="35" x2="65" y2="32"/>
		<line class="st2" x1="70" y1="35" x2="70" y2="32"/>
		<line class="st2" x1="75" y1="35" x2="75" y2="32"/>
	</g>
	<g id="numbers">
		<text transform="matrix(1 0 0 1 0.9551 4.8498)" class="st3 st4">5</text>
		<text transform="matrix(1 0 0 1 0.9551 9.8498)" class="st3 st4">10</text>
		<text transform="matrix(1 0 0 1 0.9551 14.8498)" class="st3 st4">15</text>
		<text transform="matrix(1 0 0 1 0.9551 19.8498)" class="st3 st4">20</text>
		<text transform="matrix(1 0 0 1 3.46 33.4854)" class="st3 st4">5</text>
		<text transform="matrix(1 0 0 1 7.46 33.4854)" class="st3 st4">10</text>
		<text transform="matrix(1 0 0 1 12.46 33.4854)" class="st3 st4">15</text>
		<text transform="matrix(1 0 0 1 17.46 33.4854)" class="st3 st4">20</text>
		<text transform="matrix(1 0 0 1 22.46 33.4854)" class="st3 st4">25</text>
		<text transform="matrix(1 0 0 1 27.46 33.4854)" class="st3 st4">30</text>
		<text transform="matrix(1 0 0 1 32.46 33.4854)" class="st3 st4">35</text>
		<text transform="matrix(1 0 0 1 37.46 33.4854)" class="st3 st4">40</text>
		<text transform="matrix(1 0 0 1 42.46 33.4854)" class="st3 st4">45</text>
		<text transform="matrix(1 0 0 1 47.46 33.4854)" class="st3 st4">50</text>
		<text transform="matrix(1 0 0 1 52.46 33.4854)" class="st3 st4">55</text>
		<text transform="matrix(1 0 0 1 57.46 33.4854)" class="st3 st4">60</text>
		<text transform="matrix(1 0 0 1 62.46 33.4854)" class="st3 st4">65</text>
		<text transform="matrix(1 0 0 1 67.46 33.4854)" class="st3 st4">70</text>
		<text transform="matrix(1 0 0 1 72.46 33.4854)" class="st3 st4">75</text>
	</g>
</g>
<path class="st5" d="M70,30H10V15C20,5,30,5,40,15s20,10,30,0V30z"/>
<g id="first">
	<line class="st6" x1="10" y1="15" x2="20" y2="5"/>
	<line class="st6" x1="30" y1="5" x2="20" y2="5"/>
	<line class="st6" x1="30" y1="5" x2="40" y2="15"/>
	<circle class="st7" cx="10" cy="15" r="0.2"/>
	<circle class="st7" cx="20" cy="5" r="0.2"/>
	<circle class="st7" cx="30" cy="5" r="0.2"/>
	<circle class="st7" cx="40" cy="15" r="0.2"/>
	<text transform="matrix(1 0 0 1 6.3381 15.2542)" class="st7 st3 st8">P</text>
	<text transform="matrix(0.583 0 0 0.583 8.6096 16.5862)" class="st7 st3 st8">0</text>
	<text transform="matrix(1 0 0 1 18.2343 4.5085)" class="st7 st3 st9">P</text>
	<text transform="matrix(0.583 0 0 0.583 20.5057 5.8406)" class="st7 st3 st9">1</text>
	<text transform="matrix(1 0 0 1 28.3382 4.5081)" class="st7 st3 st8">P</text>
	<text transform="matrix(0.583 0 0 0.583 30.6097 5.8401)" class="st7 st3 st8">2</text>
	<text transform="matrix(1 0 0 1 41.3381 15.5083)" class="st7 st3 st8">P</text>
	<text transform="matrix(0.583 0 0 0.583 43.6095 16.8403)" class="st7 st3 st8">3</text>
</g>
<g id="second">
	<line class="st10" x1="50" y1="25" x2="40" y2="15"/>
	<line class="st10" x1="60" y1="25" x2="50" y2="25"/>
	<line class="st10" x1="70" y1="15" x2="60" y2="25"/>
	<circle class="st11" cx="40" cy="15" r="0.2"/>
	<circle class="st11" cx="50" cy="25" r="0.2"/>
	<circle class="st11" cx="60" cy="25" r="0.2"/>
	<circle class="st11" cx="70" cy="15" r="0.2"/>
	<text transform="matrix(1 0 0 1 36.338 15.5081)" class="st11 st3 st8">P</text>
	<text transform="matrix(0.583 0 0 0.583 38.6094 16.8401)" class="st11 st3 st8">0</text>
	<text transform="matrix(1 0 0 1 48.3384 28.5088)" class="st11 st3 st12">P</text>
	<text transform="matrix(0.583 0 0 0.583 50.6099 29.8408)" class="st11 st3 st12">1</text>
	<text transform="matrix(1 0 0 1 58.3379 28.5088)" class="st11 st3 st8">P</text>
	<text transform="matrix(0.583 0 0 0.583 60.6094 29.8408)" class="st11 st3 st8">2</text>
	<text transform="matrix(1 0 0 1 71.3381 15.508)" class="st11 st3 st8">P</text>
	<text transform="matrix(0.583 0 0 0.583 73.6095 16.8401)" class="st11 st3 st8">3</text>
</g>
</svg>
