<?xml version="1.0" encoding="utf-8"?>
<!-- Generator: Adobe Illustrator 26.0.1, SVG Export Plug-In . SVG Version: 6.00 Build 0)  -->
<svg version="1.1" id="Layer_1" xmlns="http://www.w3.org/2000/svg" xmlns:xlink="http://www.w3.org/1999/xlink" x="0px" y="0px"
	 viewBox="0 0 145 35" style="enable-background:new 0 0 145 35;" xml:space="preserve">
<style type="text/css">
	.st0{opacity:0.5;fill:none;stroke:#5C5F77;stroke-width:5.000000e-02;stroke-miterlimit:10;enable-background:new    ;}
	.st1{fill:none;stroke:#5C5F77;stroke-width:5.000000e-02;stroke-miterlimit:10;}
	.st2{opacity:0.7;fill:#40A02B;enable-background:new    ;}
	.st3{font-family:'CambriaMath';}
	.st4{font-size:6px;}
	.st5{fill:#D20F39;}
	.st6{font-size:4px;}
	.st7{font-size:2.332px;}
	.st8{fill:none;stroke:#D20F39;stroke-width:0.2;stroke-miterlimit:10;}
	.st9{fill:#1E66F5;}
	.st10{fill:none;stroke:#1E66F5;stroke-width:0.2;stroke-miterlimit:10;}
	.st11{fill:#8839EF;}
	.st12{display:none;fill:none;stroke:#8839EF;stroke-width:0.2;stroke-miterlimit:10;}
	.st13{fill:none;stroke:#8839EF;stroke-width:0.2;stroke-miterlimit:10;}
</style>
<g id="x_x5F_grid">
	<line class="st0" x1="0" y1="1" x2="145" y2="1"/>
	<line class="st0" x1="0" y1="2" x2="145" y2="2"/>
	<line class="st0" x1="0" y1="3" x2="145" y2="3"/>
	<line class="st0" x1="0" y1="4" x2="145" y2="4"/>
	<line class="st0" x1="0" y1="5" x2="145" y2="5"/>
	<line class="st0" x1="0" y1="6" x2="145" y2="6"/>
	<line class="st0" x1="0" y1="7" x2="145" y2="7"/>
	<line class="st0" x1="0" y1="8" x2="145" y2="8"/>
	<line class="st0" x1="0" y1="9" x2="145" y2="9"/>
	<line class="st0" x1="0" y1="10" x2="145" y2="10"/>
	<line class="st0" x1="0" y1="11" x2="145" y2="11"/>
	<line class="st0" x1="0" y1="12" x2="145" y2="12"/>
	<line class="st0" x1="0" y1="13" x2="145" y2="13"/>
	<line class="st0" x1="0" y1="14" x2="145" y2="14"/>
	<line class="st0" x1="0" y1="15" x2="145" y2="15"/>
	<line class="st0" x1="0" y1="16" x2="145" y2="16"/>
	<line class="st0" x1="0" y1="17" x2="145" y2="17"/>
	<line class="st0" x1="0" y1="18" x2="145" y2="18"/>
	<line class="st0" x1="0" y1="19" x2="145" y2="19"/>
	<line class="st0" x1="0" y1="20" x2="145" y2="20"/>
	<line class="st0" x1="0" y1="21" x2="145" y2="21"/>
	<line class="st0" x1="0" y1="22" x2="145" y2="22"/>
	<line class="st0" x1="0" y1="23" x2="145" y2="23"/>
	<line class="st0" x1="0" y1="24" x2="145" y2="24"/>
	<line class="st0" x1="0" y1="25" x2="145" y2="25"/>
	<line class="st0" x1="0" y1="26" x2="145" y2="26"/>
	<line class="st0" x1="0" y1="27" x2="145" y2="27"/>
	<line class="st0" x1="0" y1="28" x2="145" y2="28"/>
	<line class="st0" x1="0" y1="29" x2="145" y2="29"/>
	<line class="st0" x1="0" y1="30" x2="145" y2="30"/>
	<line class="st0" x1="0" y1="31" x2="145" y2="31"/>
	<line class="st0" x1="0" y1="32" x2="145" y2="32"/>
	<line class="st0" x1="0" y1="33" x2="145" y2="33"/>
	<line class="st0" x1="0" y1="34" x2="145" y2="34"/>
</g>
<g id="y_x5F_grid">
	<line class="st1" x1="1" y1="0" x2="1" y2="35"/>
	<line class="st1" x1="2" y1="0" x2="2" y2="35"/>
	<line class="st1" x1="3" y1="0" x2="3" y2="35"/>
	<line class="st1" x1="4" y1="0" x2="4" y2="35"/>
	<line class="st1" x1="5" y1="0" x2="5" y2="35"/>
	<line class="st1" x1="6" y1="0" x2="6" y2="35"/>
	<line class="st1" x1="7" y1="0" x2="7" y2="35"/>
	<line class="st1" x1="8" y1="0" x2="8" y2="35"/>
	<line class="st1" x1="9" y1="0" x2="9" y2="35"/>
	<line class="st1" x1="10" y1="0" x2="10" y2="35"/>
	<line class="st1" x1="11" y1="0" x2="11" y2="35"/>
	<line class="st1" x1="12" y1="0" x2="12" y2="35"/>
	<line class="st1" x1="13" y1="0" x2="13" y2="35"/>
	<line class="st1" x1="14" y1="0" x2="14" y2="35"/>
	<line class="st1" x1="15" y1="0" x2="15" y2="35"/>
	<line class="st1" x1="16" y1="0" x2="16" y2="35"/>
	<line class="st1" x1="17" y1="0" x2="17" y2="35"/>
	<line class="st1" x1="18" y1="0" x2="18" y2="35"/>
	<line class="st1" x1="19" y1="0" x2="19" y2="35"/>
	<line class="st1" x1="20" y1="0" x2="20" y2="35"/>
	<line class="st1" x1="21" y1="0" x2="21" y2="35"/>
	<line class="st1" x1="22" y1="0" x2="22" y2="35"/>
	<line class="st1" x1="23" y1="0" x2="23" y2="35"/>
	<line class="st1" x1="24" y1="0" x2="24" y2="35"/>
	<line class="st1" x1="25" y1="0" x2="25" y2="35"/>
	<line class="st1" x1="26" y1="0" x2="26" y2="35"/>
	<line class="st1" x1="27" y1="0" x2="27" y2="35"/>
	<line class="st1" x1="28" y1="0" x2="28" y2="35"/>
	<line class="st1" x1="29" y1="0" x2="29" y2="35"/>
	<line class="st1" x1="30" y1="0" x2="30" y2="35"/>
	<line class="st1" x1="31" y1="0" x2="31" y2="35"/>
	<line class="st1" x1="32" y1="0" x2="32" y2="35"/>
	<line class="st1" x1="33" y1="0" x2="33" y2="35"/>
	<line class="st1" x1="34" y1="0" x2="34" y2="35"/>
	<line class="st1" x1="35" y1="0" x2="35" y2="35"/>
	<line class="st1" x1="36" y1="0" x2="36" y2="35"/>
	<line class="st1" x1="37" y1="0" x2="37" y2="35"/>
	<line class="st1" x1="38" y1="0" x2="38" y2="35"/>
	<line class="st1" x1="39" y1="0" x2="39" y2="35"/>
	<line class="st1" x1="40" y1="0" x2="40" y2="35"/>
	<line class="st1" x1="41" y1="0" x2="41" y2="35"/>
	<line class="st1" x1="42" y1="0" x2="42" y2="35"/>
	<line class="st1" x1="43" y1="0" x2="43" y2="35"/>
	<line class="st1" x1="44" y1="0" x2="44" y2="35"/>
	<line class="st1" x1="45" y1="0" x2="45" y2="35"/>
	<line class="st1" x1="46" y1="0" x2="46" y2="35"/>
	<line class="st1" x1="47" y1="0" x2="47" y2="35"/>
	<line class="st1" x1="48" y1="0" x2="48" y2="35"/>
	<line class="st1" x1="49" y1="0" x2="49" y2="35"/>
	<line class="st1" x1="50" y1="0" x2="50" y2="35"/>
	<line class="st1" x1="51" y1="0" x2="51" y2="35"/>
	<line class="st1" x1="52" y1="0" x2="52" y2="35"/>
	<line class="st1" x1="53" y1="0" x2="53" y2="35"/>
	<line class="st1" x1="54" y1="0" x2="54" y2="35"/>
	<line class="st1" x1="55" y1="0" x2="55" y2="35"/>
	<line class="st1" x1="56" y1="0" x2="56" y2="35"/>
	<line class="st1" x1="57" y1="0" x2="57" y2="35"/>
	<line class="st1" x1="58" y1="0" x2="58" y2="35"/>
	<line class="st1" x1="59" y1="0" x2="59" y2="35"/>
	<line class="st1" x1="60" y1="0" x2="60" y2="35"/>
	<line class="st1" x1="61" y1="0" x2="61" y2="35"/>
	<line class="st1" x1="62" y1="0" x2="62" y2="35"/>
	<line class="st1" x1="63" y1="0" x2="63" y2="35"/>
	<line class="st1" x1="64" y1="0" x2="64" y2="35"/>
	<line class="st1" x1="65" y1="0" x2="65" y2="35"/>
	<line class="st1" x1="66" y1="0" x2="66" y2="35"/>
	<line class="st1" x1="67" y1="0" x2="67" y2="35"/>
	<line class="st1" x1="68" y1="0" x2="68" y2="35"/>
	<line class="st1" x1="69" y1="0" x2="69" y2="35"/>
	<line class="st1" x1="70" y1="0" x2="70" y2="35"/>
	<line class="st1" x1="71" y1="0" x2="71" y2="35"/>
	<line class="st1" x1="72" y1="0" x2="72" y2="35"/>
	<line class="st1" x1="73" y1="0" x2="73" y2="35"/>
	<line class="st1" x1="74" y1="0" x2="74" y2="35"/>
	<line class="st1" x1="75" y1="0" x2="75" y2="35"/>
	<line class="st1" x1="76" y1="0" x2="76" y2="35"/>
	<line class="st1" x1="77" y1="0" x2="77" y2="35"/>
	<line class="st1" x1="78" y1="0" x2="78" y2="35"/>
	<line class="st1" x1="79" y1="0" x2="79" y2="35"/>
	<line class="st1" x1="80" y1="0" x2="80" y2="35"/>
	<line class="st1" x1="81" y1="0" x2="81" y2="35"/>
	<line class="st1" x1="82" y1="0" x2="82" y2="35"/>
	<line class="st1" x1="83" y1="0" x2="83" y2="35"/>
	<line class="st1" x1="84" y1="0" x2="84" y2="35"/>
	<line class="st1" x1="85" y1="0" x2="85" y2="35"/>
	<line class="st1" x1="86" y1="0" x2="86" y2="35"/>
	<line class="st1" x1="87" y1="0" x2="87" y2="35"/>
	<line class="st1" x1="88" y1="0" x2="88" y2="35"/>
	<line class="st1" x1="89" y1="0" x2="89" y2="35"/>
	<line class="st1" x1="90" y1="0" x2="90" y2="35"/>
	<line class="st1" x1="91" y1="0" x2="91" y2="35"/>
	<line class="st1" x1="92" y1="0" x2="92" y2="35"/>
	<line class="st1" x1="93" y1="0" x2="93" y2="35"/>
	<line class="st1" x1="94" y1="0" x2="94" y2="35"/>
	<line class="st1" x1="95" y1="0" x2="95" y2="35"/>
	<line class="st1" x1="96" y1="0" x2="96" y2="35"/>
	<line class="st1" x1="97" y1="0" x2="97" y2="35"/>
	<line class="st1" x1="98" y1="0" x2="98" y2="35"/>
	<line class="st1" x1="99" y1="0" x2="99" y2="35"/>
	<line class="st1" x1="100" y1="0" x2="100" y2="35"/>
	<line class="st1" x1="101" y1="0" x2="101" y2="35"/>
	<line class="st1" x1="102" y1="0" x2="102" y2="35"/>
	<line class="st1" x1="103" y1="0" x2="103" y2="35"/>
	<line class="st1" x1="104" y1="0" x2="104" y2="35"/>
	<line class="st1" x1="105" y1="0" x2="105" y2="35"/>
	<line class="st1" x1="106" y1="0" x2="106" y2="35"/>
	<line class="st1" x1="107" y1="0" x2="107" y2="35"/>
	<line class="st1" x1="108" y1="0" x2="108" y2="35"/>
	<line class="st1" x1="109" y1="0" x2="109" y2="35"/>
	<line class="st1" x1="110" y1="0" x2="110" y2="35"/>
	<line class="st1" x1="111" y1="0" x2="111" y2="35"/>
	<line class="st1" x1="112" y1="0" x2="112" y2="35"/>
	<line class="st1" x1="113" y1="0" x2="113" y2="35"/>
	<line class="st1" x1="114" y1="0" x2="114" y2="35"/>
	<line class="st1" x1="115" y1="0" x2="115" y2="35"/>
	<line class="st1" x1="116" y1="0" x2="116" y2="35"/>
	<line class="st1" x1="117" y1="0" x2="117" y2="35"/>
	<line class="st1" x1="118" y1="0" x2="118" y2="35"/>
	<line class="st1" x1="119" y1="0" x2="119" y2="35"/>
	<line class="st1" x1="120" y1="0" x2="120" y2="35"/>
	<line class="st1" x1="121" y1="0" x2="121" y2="35"/>
	<line class="st1" x1="122" y1="0" x2="122" y2="35"/>
	<line class="st1" x1="123" y1="0" x2="123" y2="35"/>
	<line class="st1" x1="124" y1="0" x2="124" y2="35"/>
	<line class="st1" x1="125" y1="0" x2="125" y2="35"/>
	<line class="st1" x1="126" y1="0" x2="126" y2="35"/>
	<line class="st1" x1="127" y1="0" x2="127" y2="35"/>
	<line class="st1" x1="128" y1="0" x2="128" y2="35"/>
	<line class="st1" x1="129" y1="0" x2="129" y2="35"/>
	<line class="st1" x1="130" y1="0" x2="130" y2="35"/>
	<line class="st1" x1="131" y1="0" x2="131" y2="35"/>
	<line class="st1" x1="132" y1="0" x2="132" y2="35"/>
	<line class="st1" x1="133" y1="0" x2="133" y2="35"/>
	<line class="st1" x1="134" y1="0" x2="134" y2="35"/>
	<line class="st1" x1="135" y1="0" x2="135" y2="35"/>
	<line class="st1" x1="136" y1="0" x2="136" y2="35"/>
	<line class="st1" x1="137" y1="0" x2="137" y2="35"/>
	<line class="st1" x1="138" y1="0" x2="138" y2="35"/>
	<line class="st1" x1="139" y1="0" x2="139" y2="35"/>
	<line class="st1" x1="140" y1="0" x2="140" y2="35"/>
	<line class="st1" x1="141" y1="0" x2="141" y2="35"/>
	<line class="st1" x1="142" y1="0" x2="142" y2="35"/>
	<line class="st1" x1="143" y1="0" x2="143" y2="35"/>
	<line class="st1" x1="144" y1="0" x2="144" y2="35"/>
</g>
<g id="_x31_">
	<path class="st2" d="M35,28H5V13C15,3,25,3,35,13V28z"/>
	<text transform="matrix(1 0 0 1 18.3389 34.1079)" class="st3 st4">1</text>
	<text transform="matrix(1 0 0 1 20.6602 4.6802)" class="st5 st3 st6">t</text>
	<text transform="matrix(1 0 0 1 22.0137 6.0127)" class="st5 st3 st7">max</text>
	<circle class="st5" cx="20" cy="5.5" r="0.3"/>
</g>
<g id="_x32_">
	<path class="st2" d="M70,28H40V13C50,3,60,3,70,13V28z"/>
	<text transform="matrix(1 0 0 1 53.3389 34.1079)" class="st3 st4">2</text>
	<circle class="st5" cx="55" cy="5.5" r="0.3"/>
	<line class="st8" x1="40" y1="5.5" x2="70" y2="5.5"/>
	<text transform="matrix(1 0 0 1 48.9521 3.6802)" class="st5 st3 st6">f’(t</text>
	<text transform="matrix(1 0 0 1 54.0615 5.0127)" class="st5 st3 st7">max</text>
	<text transform="matrix(1 0 0 1 58.2676 3.6802)" class="st5 st3 st6">)</text>
</g>
<g id="_x33_">
	<path class="st2" d="M105,28H75V13c10-10,20-10,30,0V28z"/>
	<text transform="matrix(1 0 0 1 88.3389 34.1079)" class="st3 st4">3</text>
	<circle class="st9" cx="75" cy="13" r="0.3"/>
	<circle class="st9" cx="105" cy="13" r="0.3"/>
	<circle class="st5" cx="90" cy="5.5" r="0.3"/>
	<line class="st8" x1="75" y1="5.5" x2="105" y2="5.5"/>
	<circle class="st9" cx="85" cy="3" r="0.3"/>
	<circle class="st9" cx="95" cy="3" r="0.3"/>
	<text transform="matrix(1 0 0 1 71.6587 10.6802)" class="st9 st3 st6">P</text>
	<text transform="matrix(1 0 0 1 73.9297 12.0127)" class="st9 st3 st7">0</text>
	<text transform="matrix(1 0 0 1 79.6587 3.6802)" class="st9 st3 st6">P</text>
	<text transform="matrix(1 0 0 1 81.9297 5.0127)" class="st9 st3 st7">1</text>
	<text transform="matrix(1 0 0 1 96.6587 3.6802)" class="st9 st3 st6">P</text>
	<text transform="matrix(1 0 0 1 98.9297 5.0127)" class="st9 st3 st7">2</text>
	<text transform="matrix(1 0 0 1 105.6587 11.6802)" class="st9 st3 st6">P</text>
	<text transform="matrix(1 0 0 1 107.9297 13.0127)" class="st9 st3 st7">3</text>
	<line class="st10" x1="75" y1="13" x2="85" y2="3"/>
	<line class="st10" x1="105" y1="13" x2="95" y2="3"/>
</g>
<g id="_x34_">
	<path class="st2" d="M140,28h-30V13c10-10,20-10,30,0V28z"/>
	<text transform="matrix(1 0 0 1 123.3389 34.1079)" class="st3 st4">4</text>
	<circle class="st11" cx="110" cy="13" r="0.3"/>
	<circle class="st11" cx="140" cy="13" r="0.3"/>
	<line class="st12" x1="140" y1="13" x2="132.5" y2="5.5"/>
	<line class="st12" x1="117.5" y1="5.5" x2="110" y2="13"/>
	<polyline class="st13" points="110,13 117.5,5.5 132.5,5.5 140,13 	"/>
	<circle class="st11" cx="132.5" cy="5.5" r="0.3"/>
	<circle class="st11" cx="117.5" cy="5.5" r="0.3"/>
</g>
</svg>
